<?xml version="1.0" encoding="utf-8"?>
<!-- Generator: Adobe Illustrator 22.0.0, SVG Export Plug-In . SVG Version: 6.00 Build 0)  -->
<svg version="1.1" id="Слой_1" xmlns="http://www.w3.org/2000/svg" xmlns:xlink="http://www.w3.org/1999/xlink" x="0px" y="0px"
	 viewBox="0 0 595.3 841.9" style="enable-background:new 0 0 595.3 841.9;" xml:space="preserve">
<style type="text/css">
	.st0{fill-rule:evenodd;clip-rule:evenodd;}
</style>
<path class="st0" d="M152,378.9C141.9,409,79.5,432.2,4,432.2c-73,0-133.7-21.7-146.8-50.3c-3.4-7.4-3.1-13.5-3.1-21.5v-38.9
	c4.7-0.4,9.5-1.1,14.3-1.9c1.4,3.5,2.6,6.6,3.8,9.4c12.2,29.2,57.6,52.9,125.5,55.9c70.2,3.2,120.9-17.7,130.3-47.4
	c1-3.3,1.5-6.1,1.7-9.1c-14.6,20.1-52,34.4-95.8,34.4c-50,0-91.6-18.7-100.6-43.3c-2.3-6.3-2.1-18.5-2.1-25.4
	c0.6-0.2,1.2-0.5,1.7-0.7c41.7-17.6,78.7-55.7,115.2-83.1c19.4-13.6,37.9-16.6,68.5-16.5c-33.5-12-62-5.9-87.7,8
	c-33.3,17.9-58.9,46.2-92.3,64.5c-38.2,20.9-80.6,36.2-114.8,34.2c-34-1.9-58.9-27.1-66.9-60.7c-6.2-26.1-1.3-57.3,11.7-86.4
	C-206.8,93.5-139,57-63.2,43.3C-132.9,64-197,117.4-200.5,170.7c-4.2,65.5,45.4,63.4,97.7,44c-50.5,0.5-61.5-50.9-30.1-90
	c64.6-80.4,181.8-77.4,264.4-41.5c26.9,11.7,48.9,27.7,61.8,48.1c-3.3-21.5-11.7-39.1-23.8-53.2c30,19.4,51.3,45.5,58.2,78.2
	c13.3,63-26.8,86.8-73.8,76.1v129.8C153.9,368.6,154,373,152,378.9L152,378.9z M151.2,170.5c41.3,10.6,51-33-38.3-74.7
	C153.9,118.4,178.1,164.8,151.2,170.5z"/>
</svg>
