<?xml version="1.0" encoding="utf-8"?>
<!-- Generator: Adobe Illustrator 22.0.0, SVG Export Plug-In . SVG Version: 6.00 Build 0)  -->
<svg version="1.1" id="Слой_1" xmlns="http://www.w3.org/2000/svg" xmlns:xlink="http://www.w3.org/1999/xlink" x="0px" y="0px"
	 viewBox="0 0 595.3 841.9" style="enable-background:new 0 0 595.3 841.9;" xml:space="preserve">
<style type="text/css">
	.st0{fill-rule:evenodd;clip-rule:evenodd;}
</style>
<path class="st0" d="M-120.8,360c10.1,30.1,72.5,53.3,148,53.3c73,0,133.7-21.7,146.8-50.3c3.4-7.4,3.1-13.5,3.1-21.5v-84.2
	c-5.1,19.8-13,40.7-18.1,52.8C147,339.3,101.5,363,33.7,366.1c-65.9,3-114.5-15.2-128.1-42C-71,336.2-35.2,344,5,344
	c62.2,0,113.9-18.7,125.1-43.3c2.9-6.3,2.7-11.6,2.7-18.5v-129c-45.3-12.4-98-24.3-145.9-32.7c60.9-2.7,127.2,0,173.5,7.3
	c81.1,12.8,106.1-28.6,87.9-60.3c-2.5-4.3-5.8-8.5-9.7-12.6c-2.9,11.8-11.5,21.7-24.1,27.9c-0.2-2.1-0.8-4.4-1.7-6.8
	c-13.8-34.5-85.7-53.6-155.7-53.8C-11.6,22.1-82,36.7-113.7,55.1C-95.1,10.7,38.2-3.9,95.5-4c-8.6-1.6-17.4-3-26.3-4.2
	C-31.1-21.8-118.5,4.6-155.7,31.2c-60.3,43.1-32,76.9,8.1,89.4c7.9,2.5,16.3,4,24.8,4.9v158.3c0,2.2,0,4.1,0.1,5.9v53.6
	C-122.7,349.7-122.7,354.1-120.8,360L-120.8,360z M-81.6,82.5c-42.5,5.2-27-27,60.1-37.8C-61.3,54.8-99.4,78.4-81.6,82.5z"/>
</svg>
