<?xml version="1.0" encoding="utf-8"?>
<!-- Generator: Adobe Illustrator 22.0.0, SVG Export Plug-In . SVG Version: 6.00 Build 0)  -->
<svg version="1.1" id="Слой_1" xmlns="http://www.w3.org/2000/svg" xmlns:xlink="http://www.w3.org/1999/xlink" x="0px" y="0px"
	 viewBox="0 0 595.3 841.9" style="enable-background:new 0 0 595.3 841.9;" xml:space="preserve">
<style type="text/css">
	.st0{fill-rule:evenodd;clip-rule:evenodd;}
</style>
<path class="st0" d="M-109.8,222.9c-43.8-0.7-44.4,79.7-25.3,116.1C-141.1,297.8-127.9,237.7-109.8,222.9L-109.8,222.9z
	 M-201.5,159.8C-153,107.3-127.2,88.4-84.6,89c11.5,0.2,30.1,6.9,52.3,10.6c17.2,2.9,38.2-2.8,55.7,4.1c16.8,6.7,32,17.9,46.7,29.6
	c-23.6-9.4-39.6-12.2-54.8-12.7c-14.6-0.5-21.7,5.8-40.7,6.1c-9.9,0.1-27.1-2.4-37.8,1.3c-27.5,9.5-57.1,30.5-85.9,61.6
	c-7,7.3-10.7,15.9-12.5,25.5c37.4-38.6,79.8-57.6,112.3-57.2c10.7,0.1,25.4-4.1,42.5-0.1c9,2.1,25.5,6.6,35.6,12.1
	c25.8,14,40.8,28,63.7,40.8c15,8.4,19.4,33.8,18.4,66.2c10-29.3,19-56.2,22.5-76.2c12.2,62.8-17.8,184.1-38.3,256.8
	c-0.1,0.5-0.3,1-0.5,1.4c-0.2-0.1-0.4-0.2-0.7-0.4c-8.8-5.1-24.9-11.3-46.1-16.1c15.3-34,36.7-136,23-209.9
	c0.3,70-26.8,174.4-48.3,205.3c-8-1.1-16.5-2-25.4-2.6c6.8-24.1,7-77.7,0.5-99.4c-0.5,30.9-8.5,75.9-16.5,98.8
	c-39.2-0.6-84.4,5.6-129.9,24.9c115.7-33.3,232.6,2,243,26.2v122.8c-20.4-20.1-77.1-34.5-143.9-34.5c-68.1,0-125.8,15-145,35.7V467
	c-10.9-68-41.6-144.5-46.4-192.2C-245.3,232.7-226,185.2-201.5,159.8L-201.5,159.8z M-47.8,589.8c-75.2,0-136.2,16.8-136.2,37.5
	c0,19.6,54.7,35.7,124.3,37.3c-21.9-5.3-36-13.6-36-23c0-16,40.7-28.9,90.9-28.9c44.5,0,81.5,10.2,89.3,23.6c2.6-2.9,4-5.9,4-9
	C88.4,606.6,27.4,589.8-47.8,589.8z"/>
</svg>
