<?xml version="1.0" encoding="utf-8"?>
<!-- Generator: Adobe Illustrator 22.0.0, SVG Export Plug-In . SVG Version: 6.00 Build 0)  -->
<svg version="1.1" id="Слой_1" xmlns="http://www.w3.org/2000/svg" xmlns:xlink="http://www.w3.org/1999/xlink" x="0px" y="0px"
	 viewBox="0 0 595.3 841.9" style="enable-background:new 0 0 595.3 841.9;" xml:space="preserve">
<style type="text/css">
	.st0{fill-rule:evenodd;clip-rule:evenodd;}
</style>
<path class="st0" d="M208.3,232.4c53.9,4.8,95.9,45.6,95.9,95.1c0,48.1-39.6,87.8-91.2,94.6v111.2c0,5.8,0,9.9-1.9,15.4
	c-10.1,27.8-72.5,49.3-148,49.3c-73,0-133.7-20-146.8-46.5c-3.4-6.8-3.1-12.5-3.1-19.9v-59.4c2.1,0.2,4.3,0.4,6.5,0.6
	c4.1,11.3,8.4,21.6,11.6,28.7c12.2,26.9,57.6,48.6,125.5,51.1c70.2,2.6,120.9-17,130.3-44.5c0.8-2.2,1.2-4.3,1.5-6.3
	c-15,17.2-53.1,29.3-97.7,29.3c-51,0-93.5-15.9-102.7-37c-2.4-5.4-2.2-9.9-2.2-15.8v-12.7c39.9-11.1,76.5-33.9,96.3-65.9
	c23.3,22.8,64.6,34.4,99.8,22.9c-62.5-4.8-92.4-38.3-100.5-66.2c-16.5,45.3-79.3,76.9-142.2,76.9c-62.9,0-126.4-50.7-126.4-113.3
	c0-49.9,36-92.3,86-107.4c-30.1,15.9-54.7,45.4-54.7,78.4c0,59.8,49.1,87.3,103,89.3c-31.9-14.3-56.8-44.1-56.8-78.6
	c0-60,62.2-95.1,115.8-86.2c15.7-47.4,66.8-66.1,112.2-57.8c-27.8-15.6-61.3-21.8-91-16c16.7-7.3,35.4-11.3,55.2-11.3
	C148.1,130.5,202,175.2,208.3,232.4L208.3,232.4z M181.6,252.6c-3.2-25.6-18.4-62-54.6-72c30.5,20.5,36.5,58.2,37,80.1
	c58.8,9.4,72,95,19.6,112.2C247.3,380.1,270.7,276.3,181.6,252.6z"/>
</svg>
