<?xml version="1.0" encoding="utf-8"?>
<!-- Generator: Adobe Illustrator 22.0.0, SVG Export Plug-In . SVG Version: 6.00 Build 0)  -->
<svg version="1.1" id="Слой_1" xmlns="http://www.w3.org/2000/svg" xmlns:xlink="http://www.w3.org/1999/xlink" x="0px" y="0px"
	 viewBox="0 0 595.3 841.9" style="enable-background:new 0 0 595.3 841.9;" xml:space="preserve">
<style type="text/css">
	.st0{fill-rule:evenodd;clip-rule:evenodd;}
</style>
<path class="st0" d="M-121.8,296.5c-11.6-12.6-9.6-33.8,6.5-51.4c28-30.6,76.7-48.2,132-46.8c40.3,1,84.8,12.3,111,32.9
	C104.2,198.8,43.9,181-9.6,179.6c-11.5-0.3-22.4-0.2-32.6,0.4c18.9-2.9,38.7-4.1,59.2-3.6c76.4,1.9,163.3,28.9,189.1,78.3
	c16.1,30.8,11.9,78.1-49.8,83.1v183.6c-19.8-21.2-78.9-36.6-148.7-36.6c-68.5,0-126.6,14.8-147.5,35.4V366.7
	c4.7-24.9,118.8-65,240.4-34.7c-103.2-39.8-205-13.6-241.9,4.9c-59.5,0.9-72.4-51.6-35.8-91.6c12.8-13.9,28.5-26,46.4-36
	c-4.5,3.6-8.8,7.7-12.9,12.1C-172.4,252.7-171,295.4-121.8,296.5L-121.8,296.5z M129.4,297c36.2,5,29.3-44-51.3-67.4
	C117.3,246.2,149.5,288,129.4,297L129.4,297z M5.8,500.9c-77.1,0-139.7,17.2-139.7,38.4c0,3.2,1.4,6.3,4.1,9.2
	c8-13.8,46-24.2,91.6-24.2c51.5,0,93.2,13.3,93.2,29.6c0,9.6-14.5,18.2-37,23.6c71.4-1.7,127.5-18.2,127.5-38.3
	C145.4,518.1,82.9,500.9,5.8,500.9z"/>
</svg>
