<?xml version="1.0" encoding="utf-8"?>
<!-- Generator: Adobe Illustrator 22.0.0, SVG Export Plug-In . SVG Version: 6.00 Build 0)  -->
<svg version="1.1" id="Слой_1" xmlns="http://www.w3.org/2000/svg" xmlns:xlink="http://www.w3.org/1999/xlink" x="0px" y="0px"
	 viewBox="0 0 595.3 841.9" style="enable-background:new 0 0 595.3 841.9;" xml:space="preserve">
<style type="text/css">
	.st0{fill-rule:evenodd;clip-rule:evenodd;}
</style>
<path class="st0" d="M181.7,630.7c75.2,0,136.2,16.8,136.2,37.5c0,3.1-1.4,6.1-4,9c-7.8-13.4-44.9-23.6-89.3-23.6
	c-50.2,0-90.9,12.9-90.9,28.9c0,9.4,14.2,17.8,36,23c-69.6-1.7-124.3-17.7-124.3-37.3C45.4,647.5,106.4,630.7,181.7,630.7
	L181.7,630.7z M329.7,520c33.1-22.3,85.7-61.7,89.5-108.7c1.8-22.9-12.8-68.2-25-82.4c-10.3-12-23.3-19.3-38.6-23.7
	c3.3,3.2,6.3,6.8,8.9,10.8c8.8,14,22.9,47,21.3,66.5c-2.8,34.4-32,59.5-56.6,76c13.1-15.8,24.3-35.7,26.2-57.3
	c1.5-16.5-13.9-35.5-20.1-49.3c-13-29.1-63.8-27.1-116.4-30c-32.3-1.8-44.4-7.1-79.8-0.3c-48.8,9.5-53.5,33.6-93.2,50.7
	c-18.3,7.9-32.7,17.7-43.2,30.1c5.5-22.8,13.9-37.2,41.3-52.9c40-22.9,58.7-50.8,110.7-62c5.1-1.1,10-2.1,14.6-3.1
	c-15.1-2.6-30.7-3.3-47.8,1C60.6,300.9,56,322.4,6.4,347.8c-44.2,22.6-78.9,43.7-71.8,88.2c10.2,63.2,46.4,109.7,100.2,140.8v73.8
	c19.3-20.7,76.9-35.7,145-35.7c66.8,0,123.5,14.4,143.9,34.5V546.9c-4.6-24.1-115.8-58.9-234.5-24.7c10-4.2,20-7.9,29.9-10.9
	c-15.5-21-50.2-98.3-24.4-84.8c14.4,7.6,14.9,16.7,17.5,38c2.2,17.5,6.5,35.6,14.7,44.5c32.9-9.2,64.8-12.2,93.4-11.7
	c4.3-9.2,4.1-23.6,2.9-36.5c-1.5-15.6-4.6-29.1,8.8-30c17.7-1.3,8.4,44.9-2.1,66.9c9.6,0.4,18.7,1.3,27.4,2.4
	c25.9-39.3,41.2-152,53.6-113.3c11.4,35.5-17.1,84.8-41,115.2C297.2,506.6,318.3,513.9,329.7,520z"/>
</svg>
