<?xml version="1.0" encoding="utf-8"?>
<!-- Generator: Adobe Illustrator 22.0.0, SVG Export Plug-In . SVG Version: 6.00 Build 0)  -->
<svg version="1.1" id="Слой_1" xmlns="http://www.w3.org/2000/svg" xmlns:xlink="http://www.w3.org/1999/xlink" x="0px" y="0px"
	 viewBox="0 0 595.3 841.9" style="enable-background:new 0 0 595.3 841.9;" xml:space="preserve">
<style type="text/css">
	.st0{fill-rule:evenodd;clip-rule:evenodd;}
</style>
<path class="st0" d="M151.4,463.9c35.7,11.7,72.8,19.8,104.2,19.4c70.9-0.9,97.9-55.2,65.2-105.7c-17.7-27.4-48.1-53.5-86.1-69.6
	c20,13.1,33,31.5,40.6,49.4c18.1,42.9,5,77.6-58.3,70.2c-14.4-1.7-30.1-5-46-9.3c46.4,1.2,68.3-23.2,47.7-55.3
	c-11.3-17.6-32.7-35.5-64.5-39.9c-68.5-88.2-167-43.8-209.4-2.7c-23.2,0.6-58.8,5.5-80.4,16.9c15.8-22.2,50-29.1,79.6-37.2
	c36.1-40.5,106.7-60.4,166.4-52c-70.9-32.4-143.6-9.7-179.5,30.4c-61.9,5.8-105.7,47.9-106.8,101c-0.9,42.1,36.2,64,81.3,65.1
	L-98.8,604c-0.2,6.4-0.3,11,1.5,17c9.5,30.9,72.5,56.2,149.4,58.2c74.4,1.9,136.9-18.5,151-47.3c3.6-7.4,3.5-13.7,3.8-21.8l2.2-85.8
	c-5.7,20-14.4,41.1-19.8,53.3C176.1,607,129.2,630,59.9,631.3c-71.6,1.4-122.7-21.3-131.5-51.8c-1-3.5-1.4-6.5-1.5-9.7
	c14.7,21.1,54,36.9,100.5,38.1c52.8,1.4,97.3-16.5,107.4-41.4c2.6-6.4,2.6-11.8,2.8-18.8l1.4-58.4c-51.3-24.4-95-54-152.6-66
	c-6.8-1.4-14-2.7-21.6-3.9C39.5,404.2,87.1,442.8,151.4,463.9L151.4,463.9z M-84.1,351.8c12.3-8.9,24.3-10.7,40.8-13.8
	c7.8-8.2,25.3-30.6,48.3-32.1c-15.4,13.3-28.4,32.4-34.7,43.2C-42.5,348.5-67.2,348.9-84.1,351.8z"/>
</svg>
