<svg id="svg" version="1.1" width="360" height="720" xmlns="http://www.w3.org/2000/svg" xmlns:xlink="http://www.w3.org/1999/xlink" ><g id="svgg"><path id="path0" d="M222.550 3.891 C 219.620 5.873,216.222 8.624,215.000 10.004 C 213.778 11.384,216.179 9.948,220.337 6.812 C 224.494 3.677,228.467 1.111,229.165 1.111 C 229.864 1.111,228.133 2.571,225.319 4.356 C 222.505 6.140,218.033 9.515,215.379 11.856 C 212.726 14.196,211.242 15.236,212.080 14.167 C 215.729 9.514,210.986 12.848,204.137 19.750 C 197.192 26.749,194.135 31.121,198.611 27.655 C 200.194 26.429,200.162 26.611,198.439 28.630 C 196.133 31.333,194.929 31.936,196.259 29.722 C 196.826 28.778,196.491 28.822,195.213 29.858 C 193.047 31.616,192.646 33.878,194.722 32.630 C 195.666 32.063,195.622 32.398,194.586 33.676 C 192.810 35.866,191.709 36.191,192.925 34.167 C 193.492 33.223,193.157 33.267,191.880 34.303 C 189.713 36.060,189.312 38.322,191.389 37.075 C 192.333 36.508,192.289 36.843,191.253 38.120 C 189.476 40.310,188.376 40.635,189.592 38.611 C 190.159 37.667,189.824 37.711,188.547 38.747 C 186.380 40.505,185.979 42.766,188.056 41.519 C 188.999 40.952,188.956 41.287,187.920 42.564 C 186.143 44.754,185.043 45.080,186.259 43.056 C 186.826 42.112,186.491 42.155,185.213 43.192 C 183.111 44.897,182.613 47.243,184.616 46.005 C 185.417 45.510,185.597 45.701,185.095 46.513 C 184.653 47.229,183.856 47.545,183.325 47.217 C 182.794 46.889,181.843 47.505,181.213 48.588 C 180.583 49.670,180.003 50.056,179.923 49.444 C 179.844 48.833,179.339 49.583,178.802 51.111 C 178.032 53.303,177.950 53.003,178.415 49.685 C 180.511 34.720,165.466 8.866,152.805 5.678 C 145.228 3.770,133.222 4.102,129.969 6.309 C 121.872 11.803,111.794 21.869,118.056 18.208 C 118.819 17.761,118.492 18.482,117.328 19.809 C 114.802 22.689,113.532 23.050,115.678 20.278 C 116.904 18.695,116.723 18.727,114.703 20.450 C 112.145 22.632,111.225 25.192,113.505 23.783 C 114.306 23.288,114.486 23.478,113.984 24.291 C 113.542 25.006,112.739 25.320,112.201 24.987 C 110.933 24.203,108.573 28.589,109.476 30.050 C 109.855 30.664,109.566 31.029,108.833 30.861 C 108.100 30.693,107.248 31.250,106.939 32.099 C 106.553 33.161,106.857 33.366,107.911 32.754 C 108.817 32.230,109.065 32.280,108.519 32.877 C 108.009 33.434,107.022 33.889,106.324 33.889 C 105.023 33.889,94.969 56.451,95.869 57.351 C 96.144 57.625,97.501 54.823,98.884 51.124 C 100.268 47.424,101.800 44.150,102.290 43.847 C 103.258 43.249,94.611 65.521,93.284 67.041 C 92.838 67.553,92.089 67.351,91.620 66.592 C 91.040 65.653,91.223 65.494,92.195 66.094 C 93.152 66.686,93.437 66.468,93.061 65.432 C 92.752 64.583,92.014 63.988,91.420 64.110 C 90.826 64.232,88.389 62.232,86.003 59.666 L 81.667 55.000 86.665 59.444 L 91.664 63.889 87.776 59.614 C 77.983 48.845,61.740 39.865,51.133 39.355 L 43.889 39.007 51.316 39.960 C 59.457 41.005,71.246 46.487,77.864 52.306 C 81.414 55.427,81.297 55.396,76.111 51.844 C 64.464 43.866,59.136 41.853,48.311 41.342 L 38.288 40.868 32.256 46.268 C 28.939 49.237,26.670 50.917,27.215 50.000 C 28.047 48.599,27.925 48.560,26.446 49.757 C 23.338 52.274,19.927 62.023,19.448 69.755 L 18.985 77.222 19.990 70.192 C 21.122 62.272,23.009 55.887,24.486 54.974 C 25.031 54.638,24.754 56.091,23.871 58.204 C 20.092 67.249,18.564 104.538,21.617 113.194 C 23.432 118.336,22.881 119.436,20.852 114.722 C 20.129 113.042,19.236 103.917,18.868 94.444 L 18.200 77.222 18.023 93.333 C 17.841 109.939,20.365 121.667,24.121 121.667 C 24.849 121.667,26.094 122.393,26.889 123.280 C 28.136 124.672,28.067 124.692,26.389 123.421 C 20.327 118.835,25.914 125.605,34.722 133.521 C 40.375 138.600,47.700 145.511,50.999 148.878 C 54.299 152.245,56.578 154.250,56.064 153.333 C 55.258 151.897,55.389 151.877,57.009 153.192 C 59.044 154.843,59.586 156.118,57.778 155.000 C 56.052 153.934,56.455 155.507,58.935 159.519 C 61.600 163.832,66.604 178.297,69.401 189.775 C 70.487 194.234,71.592 197.667,71.856 197.404 C 72.420 196.840,68.598 181.492,66.204 174.707 C 64.385 169.551,64.889 168.130,66.790 173.056 C 67.919 175.982,74.441 199.961,74.420 201.111 C 74.415 201.417,73.885 200.917,73.244 200.000 C 72.347 198.720,72.244 198.978,72.797 201.111 C 74.163 206.384,77.189 209.434,81.221 209.601 C 84.690 209.745,84.726 209.715,81.667 209.238 C 76.270 208.396,76.354 207.208,81.797 207.391 C 88.444 207.615,88.622 206.860,85.585 191.332 C 83.085 178.550,80.300 169.023,80.000 172.222 C 79.891 173.383,79.554 173.215,78.889 171.667 C 77.541 168.529,77.593 166.910,78.979 168.889 C 81.106 171.927,78.937 165.491,74.928 156.868 C 72.849 152.395,70.674 149.028,70.095 149.386 C 69.516 149.744,68.681 149.451,68.238 148.735 C 67.736 147.923,67.916 147.732,68.717 148.227 C 75.479 152.406,59.473 134.946,46.915 124.445 L 36.111 115.411 43.889 122.866 C 49.606 128.346,50.195 129.128,46.111 125.820 C 40.295 121.108,32.746 113.442,35.467 115.010 C 36.656 115.696,36.861 115.443,36.300 113.980 C 35.891 112.913,35.556 111.552,35.556 110.955 C 35.556 110.357,35.108 110.145,34.561 110.484 C 32.667 111.654,32.062 107.140,31.665 88.889 L 31.266 70.556 32.247 89.299 C 32.787 99.609,33.492 108.306,33.813 108.628 C 34.135 108.949,34.086 101.265,33.704 91.551 C 32.950 72.338,34.183 64.568,38.950 58.508 C 44.816 51.051,63.395 56.479,76.059 69.350 C 79.697 73.048,82.236 75.332,81.701 74.425 C 81.122 73.444,81.704 73.633,83.142 74.894 C 85.838 77.259,86.502 78.836,83.889 76.667 C 82.838 75.794,82.222 75.720,82.222 76.465 C 82.222 77.635,84.312 79.395,85.741 79.427 C 86.148 79.437,86.898 79.900,87.407 80.456 C 87.945 81.044,87.751 81.132,86.944 80.668 C 84.454 79.235,85.483 81.737,88.611 84.721 C 90.292 86.325,93.042 88.156,94.722 88.791 C 99.018 90.414,98.546 89.240,94.167 87.409 C 92.181 86.579,89.806 84.961,88.889 83.813 C 87.589 82.186,87.928 82.270,90.428 84.196 C 93.906 86.877,98.879 87.512,98.906 85.278 C 98.919 84.238,99.159 84.262,99.863 85.372 C 100.596 86.528,100.931 86.405,101.386 84.816 C 101.707 83.695,102.311 81.778,102.728 80.556 C 103.238 79.063,102.927 79.246,101.783 81.111 C 99.155 85.395,99.820 82.312,102.861 76.111 C 104.360 73.056,105.281 71.556,104.909 72.778 C 103.331 77.953,103.335 78.174,104.948 75.000 C 109.947 65.165,119.212 43.567,119.320 41.495 C 119.388 40.178,119.904 39.385,120.467 39.733 C 121.032 40.082,121.162 39.513,120.757 38.458 C 120.340 37.372,120.478 36.831,121.077 37.201 C 121.655 37.558,122.899 36.359,123.842 34.536 C 125.888 30.579,125.997 29.596,124.273 30.662 C 123.472 31.157,123.292 30.966,123.794 30.154 C 124.236 29.438,125.041 29.127,125.584 29.462 C 126.126 29.797,127.415 28.779,128.450 27.201 C 130.803 23.608,135.514 21.131,142.114 20.014 C 146.491 19.274,146.701 19.132,143.575 19.020 C 138.954 18.854,132.624 21.478,128.337 25.337 L 125.008 28.333 127.782 25.172 C 132.196 20.141,148.200 14.378,147.442 18.092 C 147.321 18.683,147.917 19.419,148.766 19.727 C 149.824 20.112,150.034 19.807,149.432 18.755 C 148.950 17.912,150.380 18.945,152.611 21.051 C 154.842 23.157,156.667 25.126,156.667 25.426 C 156.667 25.726,155.070 24.503,153.118 22.708 L 149.568 19.444 152.724 23.333 C 154.460 25.472,156.265 27.222,156.736 27.222 C 157.207 27.222,158.009 27.677,158.519 28.234 C 159.068 28.833,158.802 28.872,157.867 28.329 C 156.636 27.615,156.486 27.881,157.185 29.540 C 159.593 35.258,162.238 46.736,163.448 56.722 C 164.187 62.816,165.027 67.565,165.316 67.277 C 166.096 66.496,163.447 46.748,161.646 39.921 C 159.854 33.127,160.318 30.940,162.182 37.396 C 163.749 42.823,167.813 69.653,167.626 73.333 C 167.515 75.528,167.313 75.294,166.667 72.222 C 165.867 68.425,165.846 68.412,165.780 71.667 C 165.690 76.086,167.080 79.444,169.001 79.444 C 169.856 79.444,170.556 80.194,170.556 81.111 C 170.556 83.702,174.810 83.684,178.121 81.080 C 181.107 78.731,182.351 75.822,179.722 77.335 C 178.915 77.799,178.721 77.710,179.259 77.123 C 179.769 76.566,180.727 76.111,181.389 76.111 C 182.051 76.111,182.824 75.417,183.107 74.568 C 183.450 73.539,183.146 73.318,182.195 73.906 C 181.252 74.488,181.041 74.346,181.572 73.487 C 182.014 72.771,182.799 72.447,183.315 72.767 C 183.832 73.086,185.297 71.660,186.572 69.598 C 189.218 65.316,189.498 63.963,187.500 65.113 C 186.693 65.577,186.499 65.488,187.037 64.900 C 187.546 64.344,188.505 63.889,189.167 63.889 C 189.829 63.889,190.602 63.194,190.885 62.345 C 191.237 61.290,190.915 61.083,189.866 61.690 C 188.961 62.215,188.713 62.164,189.259 61.567 C 189.769 61.011,190.727 60.556,191.389 60.556 C 192.051 60.556,192.824 59.861,193.107 59.012 C 193.459 57.956,193.137 57.749,192.089 58.357 C 191.183 58.881,190.935 58.831,191.481 58.234 C 191.991 57.677,192.949 57.222,193.611 57.222 C 194.273 57.222,195.046 56.528,195.329 55.679 C 195.681 54.623,195.359 54.416,194.311 55.023 C 193.406 55.548,193.157 55.498,193.704 54.900 C 194.213 54.344,195.171 53.889,195.833 53.889 C 196.495 53.889,197.269 53.194,197.552 52.345 C 197.903 51.290,197.582 51.083,196.533 51.690 C 195.628 52.215,195.379 52.164,195.926 51.567 C 196.435 51.011,197.394 50.556,198.056 50.556 C 198.718 50.556,199.491 49.861,199.774 49.012 C 200.126 47.956,199.804 47.749,198.755 48.357 C 197.850 48.881,197.601 48.831,198.148 48.234 C 198.657 47.677,199.616 47.222,200.278 47.222 C 200.940 47.222,201.713 46.528,201.996 45.679 C 202.352 44.611,202.038 44.420,200.977 45.059 C 199.677 45.842,199.675 45.697,200.969 44.102 C 202.751 41.905,203.809 41.604,202.691 43.611 C 202.265 44.375,205.361 41.299,209.570 36.776 C 217.971 27.747,220.181 24.289,214.313 29.354 C 212.246 31.138,214.380 28.802,219.054 24.164 C 232.313 11.004,245.412 7.011,252.838 13.864 L 256.111 16.884 252.906 14.553 C 249.367 11.980,242.102 11.456,235.645 13.308 C 231.579 14.474,222.949 19.986,223.822 20.859 C 224.113 21.150,225.887 20.095,227.765 18.514 C 235.475 12.027,247.869 11.413,254.276 17.202 C 256.631 19.330,258.812 20.818,259.121 20.509 C 262.972 16.658,264.813 47.187,261.162 54.345 C 258.526 59.511,258.363 60.434,260.278 59.332 C 261.085 58.868,261.279 58.956,260.741 59.544 C 260.231 60.100,259.273 60.556,258.611 60.556 C 257.949 60.556,257.176 61.250,256.893 62.099 C 256.581 63.036,256.872 63.338,257.634 62.867 C 259.558 61.678,259.124 62.870,257.009 64.586 C 255.387 65.901,255.264 65.882,256.111 64.444 C 256.958 63.007,256.835 62.987,255.213 64.303 C 253.045 66.062,252.650 68.309,254.722 67.097 C 255.486 66.650,255.159 67.371,253.994 68.698 C 251.467 71.579,250.208 71.934,252.330 69.167 C 253.151 68.097,252.462 68.434,250.800 69.916 C 247.727 72.654,246.636 75.233,249.167 73.775 C 249.931 73.335,249.343 74.306,247.862 75.932 C 244.592 79.522,243.262 79.887,246.199 76.389 C 247.354 75.014,246.681 75.357,244.705 77.152 C 240.966 80.548,239.653 83.612,243.056 81.003 C 244.125 80.183,243.788 80.872,242.306 82.534 C 239.310 85.895,237.782 86.644,240.108 83.611 C 240.928 82.542,240.240 82.879,238.577 84.360 C 235.268 87.310,234.369 90.071,237.500 87.670 C 238.569 86.849,238.232 87.538,236.751 89.200 C 233.759 92.556,232.211 93.320,234.567 90.278 C 235.793 88.695,235.612 88.727,233.592 90.450 C 230.965 92.691,230.148 95.154,232.500 93.741 C 233.444 93.174,233.400 93.509,232.364 94.787 C 230.713 96.822,229.438 97.364,230.556 95.556 C 230.933 94.944,230.969 94.444,230.635 94.444 C 229.965 94.444,224.444 102.905,224.444 103.932 C 224.444 104.286,225.022 104.219,225.727 103.783 C 226.528 103.288,226.708 103.478,226.206 104.291 C 225.764 105.006,224.951 105.313,224.401 104.973 C 219.890 102.185,202.004 153.628,202.310 168.508 C 202.427 174.216,203.007 172.200,203.903 162.968 C 204.309 158.795,204.853 155.593,205.113 155.853 C 205.372 156.113,204.859 164.277,203.971 173.996 C 203.083 183.715,201.955 198.917,201.464 207.778 C 200.620 223.004,200.536 223.431,199.930 215.556 L 199.289 207.222 199.089 214.722 C 198.893 222.085,198.833 222.224,195.833 222.336 C 192.934 222.444,192.966 222.494,196.445 223.318 C 198.462 223.796,200.461 224.535,200.887 224.962 C 201.314 225.388,200.413 225.457,198.887 225.117 C 156.491 215.657,103.763 212.926,88.294 219.389 C 86.177 220.274,84.444 220.748,84.444 220.442 C 84.444 219.445,92.074 216.670,95.242 216.515 C 97.891 216.386,97.973 216.295,95.814 215.880 C 89.276 214.624,80.978 220.693,81.243 226.539 C 81.371 229.370,81.396 229.359,82.222 226.111 C 83.064 222.804,83.071 222.801,83.202 225.734 L 83.333 228.691 118.056 228.538 C 151.870 228.389,182.222 231.157,182.222 234.388 C 182.222 234.793,177.847 234.229,172.500 233.136 C 167.153 232.043,161.528 231.187,160.000 231.234 C 158.472 231.282,162.165 232.241,168.206 233.366 C 181.713 235.882,181.411 235.579,180.235 245.428 C 179.108 254.861,178.600 254.346,189.405 254.711 C 197.796 254.995,198.004 254.936,201.196 251.371 C 202.982 249.376,204.444 248.157,204.444 248.663 C 204.444 254.963,185.728 258.632,178.328 253.783 C 174.082 251.001,169.124 252.605,168.306 257.025 C 167.587 260.914,173.111 275.971,176.080 278.212 C 176.978 278.890,178.470 282.694,179.396 286.667 C 181.149 294.193,181.543 299.263,180.000 294.444 C 179.147 291.780,179.106 291.768,179.000 294.167 C 178.930 295.732,178.162 296.696,176.944 296.745 C 175.293 296.811,175.335 296.958,177.222 297.717 C 178.444 298.209,179.897 298.346,180.449 298.023 C 181.002 297.699,181.123 297.970,180.719 298.625 C 180.206 299.454,178.751 299.476,175.935 298.698 C 173.708 298.084,169.760 297.750,167.161 297.957 C 164.561 298.164,162.666 297.958,162.949 297.500 C 163.233 297.042,166.060 296.577,169.232 296.466 L 175.000 296.266 169.605 295.845 C 156.698 294.838,156.548 308.458,169.444 310.392 C 172.552 310.858,173.221 310.756,171.667 310.052 C 170.444 309.498,168.397 309.010,167.117 308.967 C 163.860 308.858,160.830 305.167,161.426 302.036 C 161.890 299.599,161.929 299.619,162.071 302.364 C 162.278 306.356,163.768 307.265,172.778 308.895 C 177.056 309.669,182.053 310.640,183.884 311.054 L 187.212 311.805 181.661 315.903 C 171.663 323.284,150.418 326.712,145.883 321.675 C 144.786 320.457,144.614 320.082,145.500 320.841 C 146.386 321.601,147.872 322.222,148.803 322.222 C 149.914 322.222,149.551 321.558,147.747 320.286 C 146.236 319.221,144.667 318.346,144.259 318.341 C 143.852 318.337,143.102 317.878,142.593 317.322 C 142.055 316.734,142.249 316.645,143.056 317.110 C 146.073 318.846,144.201 315.594,139.997 311.796 C 133.616 306.032,126.376 308.328,126.796 315.983 C 126.918 318.224,126.949 318.230,127.459 316.111 C 128.254 312.806,129.808 311.615,129.204 314.773 C 128.918 316.269,129.505 319.182,130.507 321.246 C 132.029 324.381,132.046 324.645,130.609 322.843 C 129.663 321.657,128.889 320.199,128.889 319.602 C 128.889 319.006,128.602 318.805,128.251 319.156 C 127.035 320.372,131.077 326.464,135.758 330.471 C 151.129 343.628,174.727 340.652,193.888 323.141 C 199.416 318.088,202.117 314.152,198.611 316.259 C 197.667 316.826,197.711 316.491,198.747 315.213 C 200.535 313.010,201.548 312.732,200.536 314.722 C 200.148 315.486,200.862 314.939,202.123 313.506 C 204.719 310.556,206.364 305.109,206.874 297.778 C 207.240 292.525,202.434 289.930,198.457 293.231 C 197.475 294.045,196.668 294.002,195.751 293.085 C 194.750 292.083,194.444 292.364,194.444 294.288 C 194.444 295.830,194.916 296.507,195.666 296.043 C 196.392 295.594,196.297 296.357,195.431 297.921 C 194.059 300.401,193.923 300.165,193.105 293.907 C 192.628 290.251,191.520 284.812,190.643 281.821 C 189.766 278.830,189.498 276.832,190.048 277.381 C 190.598 277.931,191.812 281.370,192.746 285.024 C 194.164 290.567,194.348 290.865,193.857 286.822 C 193.123 280.786,184.216 257.461,183.245 259.033 C 182.801 259.750,182.297 259.576,181.913 258.574 C 181.404 257.247,182.746 256.984,189.473 257.091 C 197.370 257.218,197.789 257.090,201.615 253.383 C 206.302 248.840,210.264 237.354,206.389 239.542 C 205.365 240.120,205.380 239.918,206.444 238.774 C 207.239 237.921,208.364 237.160,208.944 237.083 C 209.525 237.007,210.500 236.882,211.111 236.806 C 211.722 236.729,212.222 236.137,212.222 235.490 C 212.222 234.843,211.724 234.621,211.114 234.998 C 210.398 235.441,210.411 234.620,211.152 232.671 C 211.782 231.014,212.779 216.654,213.367 200.759 C 214.403 172.807,215.391 163.156,215.710 177.870 L 215.865 185.000 216.732 175.556 C 217.661 165.441,221.027 149.181,223.835 141.249 C 225.978 135.195,225.987 134.571,223.894 137.288 C 222.513 139.081,222.532 138.695,224.011 135.000 C 226.090 129.803,227.295 128.229,226.137 132.222 C 225.694 133.750,228.374 129.000,232.093 121.667 C 239.636 106.792,239.408 107.348,237.500 108.446 C 236.693 108.910,236.499 108.821,237.037 108.234 C 237.546 107.677,238.505 107.222,239.167 107.222 C 239.829 107.222,240.602 106.528,240.885 105.679 C 241.237 104.623,240.915 104.416,239.866 105.023 C 238.961 105.548,238.713 105.498,239.259 104.900 C 239.769 104.344,240.727 103.889,241.389 103.889 C 242.051 103.889,242.824 103.194,243.107 102.345 C 243.463 101.278,243.149 101.087,242.089 101.725 C 240.803 102.500,240.805 102.342,242.103 100.742 C 242.954 99.693,243.908 99.093,244.223 99.408 C 244.965 100.150,247.778 97.821,247.778 96.465 C 247.778 95.893,247.153 95.781,246.389 96.217 C 245.625 96.654,246.469 95.433,248.263 93.505 C 252.052 89.436,253.613 88.786,250.471 92.586 C 249.295 94.009,251.454 91.884,255.268 87.864 C 261.775 81.006,264.011 77.683,260.833 79.592 C 259.914 80.144,259.968 79.781,260.992 78.520 C 261.843 77.471,262.797 76.871,263.112 77.186 C 263.854 77.928,266.667 75.599,266.667 74.243 C 266.667 73.670,266.042 73.562,265.278 74.001 C 264.471 74.466,264.277 74.377,264.815 73.789 C 265.324 73.233,266.282 72.778,266.944 72.778 C 267.606 72.778,268.380 72.083,268.663 71.234 C 269.015 70.178,268.693 69.971,267.644 70.579 C 266.739 71.104,266.490 71.053,267.037 70.456 C 267.546 69.900,268.505 69.444,269.167 69.444 C 269.829 69.444,270.602 68.750,270.885 67.901 C 271.228 66.872,270.924 66.651,269.972 67.239 C 269.030 67.822,268.818 67.680,269.350 66.820 C 269.792 66.105,270.629 65.813,271.209 66.172 C 272.989 67.272,279.214 52.440,279.578 46.232 C 279.922 40.368,279.689 40.935,277.691 50.814 C 277.045 54.012,276.099 56.886,275.589 57.201 C 275.080 57.516,275.297 55.650,276.072 53.054 C 276.847 50.457,277.891 44.833,278.391 40.556 C 279.149 34.079,279.432 33.335,280.078 36.111 C 280.671 38.656,280.757 38.319,280.444 34.689 C 279.930 28.733,276.105 19.690,272.972 17.024 C 270.641 15.040,270.626 15.044,272.208 17.222 C 273.411 18.879,273.052 18.759,270.800 16.751 C 267.657 13.949,266.523 12.020,269.444 14.444 C 274.363 18.527,270.090 12.633,264.001 6.937 L 256.892 0.287 242.385 0.287 L 227.878 0.287 222.550 3.891 M264.444 8.333 C 266.518 10.472,267.964 12.222,267.658 12.222 C 267.353 12.222,265.406 10.472,263.333 8.333 C 261.260 6.194,259.814 4.444,260.120 4.444 C 260.425 4.444,262.371 6.194,264.444 8.333 M152.700 6.763 C 156.187 7.641,158.974 9.536,162.914 13.707 L 168.333 19.444 162.778 14.263 C 151.523 3.768,129.339 3.827,122.823 14.371 C 122.421 15.023,121.603 15.556,121.007 15.556 C 119.853 15.556,125.389 10.531,129.969 7.421 C 133.203 5.225,145.212 4.878,152.700 6.763 M208.889 16.997 C 208.889 17.178,206.764 19.303,204.167 21.719 L 199.444 26.111 203.837 21.389 C 207.921 16.997,208.889 16.156,208.889 16.997 M219.996 23.893 C 218.563 25.419,217.728 26.667,218.140 26.667 C 219.216 26.667,223.607 22.126,223.060 21.578 C 222.808 21.326,221.429 22.368,219.996 23.893 M174.408 32.923 C 175.571 36.686,176.808 41.694,177.156 44.050 C 177.505 46.406,176.550 43.958,175.035 38.610 C 173.519 33.263,171.492 27.263,170.530 25.277 C 168.935 21.983,168.935 21.860,170.538 23.873 C 171.504 25.087,173.246 29.159,174.408 32.923 M277.807 27.312 C 279.710 33.076,278.584 32.967,276.505 27.186 C 275.533 24.483,275.135 22.518,275.621 22.818 C 276.107 23.119,277.091 25.141,277.807 27.312 M264.119 32.487 C 263.853 33.869,263.626 33.000,263.614 30.556 C 263.601 28.111,263.819 26.980,264.097 28.043 C 264.375 29.105,264.385 31.105,264.119 32.487 M211.111 33.671 C 211.111 33.857,209.236 35.732,206.944 37.838 L 202.778 41.667 206.607 37.500 C 210.171 33.622,211.111 32.822,211.111 33.671 M265.248 45.833 C 265.002 47.819,264.800 46.194,264.800 42.222 C 264.800 38.250,265.002 36.625,265.248 38.611 C 265.495 40.597,265.495 43.847,265.248 45.833 M33.056 42.918 C 30.153 45.097,27.778 47.374,27.778 47.979 C 27.778 48.583,30.064 47.065,32.858 44.606 C 35.653 42.146,39.028 39.921,40.358 39.662 C 42.526 39.240,42.547 39.179,40.556 39.074 C 39.333 39.009,35.958 40.739,33.056 42.918 M62.134 56.798 C 65.947 58.704,71.902 63.011,75.367 66.369 L 81.667 72.476 75.290 66.886 C 65.538 58.338,56.886 54.444,47.647 54.444 L 40.094 54.444 37.163 59.444 C 34.162 64.565,32.210 66.442,34.563 61.944 C 39.930 51.685,48.646 50.058,62.134 56.798 M177.288 80.591 C 176.101 81.488,174.101 82.194,172.843 82.160 C 171.265 82.116,171.761 81.641,174.444 80.625 C 179.592 78.678,179.821 78.675,177.288 80.591 M260.000 81.449 C 260.000 81.634,258.125 83.509,255.833 85.615 L 251.667 89.444 255.496 85.278 C 259.060 81.400,260.000 80.600,260.000 81.449 M53.889 148.989 C 56.287 151.781,40.568 138.086,32.281 130.163 C 29.499 127.503,32.722 130.068,39.444 135.864 C 46.167 141.659,52.667 147.566,53.889 148.989 M338.047 129.438 C 333.369 131.471,326.667 136.589,326.667 138.128 C 326.667 138.786,328.292 137.752,330.278 135.830 C 335.982 130.309,348.430 126.561,350.412 129.768 C 350.711 130.251,349.276 130.451,347.224 130.211 C 341.544 129.548,335.709 132.002,329.520 137.657 C 326.438 140.474,324.597 141.778,325.430 140.556 C 326.263 139.333,325.602 139.771,323.962 141.527 C 322.322 143.284,321.253 145.435,321.588 146.307 C 321.933 147.206,321.710 147.592,321.073 147.199 C 318.571 145.652,311.191 167.106,308.452 183.889 C 305.637 201.131,305.183 207.028,306.743 206.064 C 307.638 205.511,307.839 205.668,307.317 206.513 C 306.875 207.229,306.069 207.540,305.526 207.204 C 304.155 206.357,301.433 211.970,300.649 217.261 C 299.886 222.413,300.485 221.412,302.235 214.610 C 302.920 211.951,303.673 209.969,303.909 210.206 C 304.425 210.721,300.064 228.093,299.219 228.889 C 298.895 229.194,298.936 227.694,299.312 225.556 L 299.994 221.667 298.503 225.556 C 296.213 231.528,295.210 236.492,296.706 234.444 C 297.661 233.137,297.761 233.376,297.170 235.556 C 296.756 237.083,295.943 238.833,295.365 239.444 C 294.692 240.155,294.549 239.754,294.969 238.333 L 295.624 236.111 294.541 238.333 C 290.471 246.678,285.718 259.364,286.306 260.315 C 286.699 260.951,286.468 261.120,285.783 260.696 C 285.108 260.279,284.031 260.919,283.389 262.118 C 281.847 265.000,281.916 265.863,283.611 264.887 C 284.418 264.423,284.612 264.512,284.074 265.100 C 283.565 265.656,282.606 266.111,281.944 266.111 C 281.282 266.111,280.509 266.806,280.226 267.655 C 279.874 268.710,280.196 268.917,281.245 268.310 C 282.150 267.785,282.399 267.836,281.852 268.433 C 281.343 268.989,280.384 269.444,279.722 269.444 C 279.060 269.444,278.287 270.139,278.004 270.988 C 277.661 272.017,277.965 272.238,278.916 271.650 C 279.859 271.067,280.070 271.209,279.539 272.069 C 279.097 272.784,278.349 273.131,277.878 272.840 C 277.001 272.298,272.218 278.087,272.228 279.677 C 272.231 280.160,273.522 279.056,275.097 277.222 L 277.961 273.889 275.586 277.480 C 274.280 279.455,272.676 280.955,272.022 280.813 C 271.368 280.671,270.581 281.250,270.273 282.099 C 269.883 283.172,270.179 283.361,271.245 282.719 C 272.546 281.936,272.547 282.080,271.253 283.676 C 269.476 285.866,268.376 286.191,269.592 284.167 C 270.159 283.223,269.824 283.267,268.547 284.303 C 266.378 286.062,265.983 288.309,268.056 287.097 C 268.819 286.650,268.492 287.371,267.328 288.698 C 264.797 291.584,263.570 291.920,265.620 289.167 C 266.416 288.097,263.231 291.222,258.540 296.111 C 248.004 307.095,247.489 308.453,257.500 298.859 C 263.811 292.811,263.594 293.125,256.137 300.836 C 251.263 305.876,247.060 310.000,246.798 310.000 C 246.536 310.000,247.227 309.000,248.333 307.778 C 249.439 306.556,249.865 305.556,249.279 305.556 C 248.693 305.556,246.491 307.420,244.385 309.699 C 241.972 312.309,241.583 313.037,243.333 311.667 C 245.084 310.296,244.695 311.024,242.282 313.635 C 238.592 317.627,236.950 318.904,238.286 316.743 C 238.637 316.175,238.417 315.395,237.796 315.011 C 237.175 314.627,236.667 314.926,236.667 315.675 C 236.667 316.424,236.405 316.775,236.085 316.455 C 235.765 316.135,235.835 315.010,236.240 313.955 C 236.742 312.646,237.228 312.443,237.768 313.318 C 240.702 318.065,245.852 291.625,245.989 271.111 C 246.097 254.812,241.686 238.140,237.886 240.489 C 237.300 240.851,236.458 240.562,236.016 239.846 C 235.485 238.987,235.697 238.845,236.639 239.427 C 237.590 240.015,237.895 239.795,237.552 238.766 C 237.269 237.917,236.495 237.222,235.833 237.222 C 235.171 237.222,234.213 236.767,233.704 236.211 C 233.166 235.623,233.360 235.534,234.167 235.999 C 237.546 237.943,235.064 234.208,229.880 229.547 C 223.728 224.016,219.189 222.939,216.579 226.389 C 215.327 228.043,215.340 228.126,216.665 226.944 C 219.660 224.273,223.963 225.373,229.024 230.102 L 233.889 234.649 228.967 230.658 C 224.115 226.724,218.690 225.403,217.211 227.796 C 215.933 229.863,214.446 227.698,214.292 223.546 C 214.192 220.841,213.857 221.905,213.308 226.667 C 212.397 234.570,212.710 236.206,214.350 232.106 C 215.121 230.180,215.434 229.981,215.485 231.386 C 215.524 232.453,217.375 235.453,219.598 238.052 L 223.641 242.778 219.043 238.099 C 216.514 235.525,214.444 233.680,214.444 233.998 C 214.444 235.321,222.674 244.297,223.448 243.818 C 223.912 243.532,224.653 243.882,225.095 244.598 C 225.597 245.410,225.417 245.601,224.616 245.106 C 223.022 244.121,222.983 245.047,224.500 247.882 C 225.142 249.081,226.219 249.721,226.894 249.304 C 227.601 248.867,227.809 249.051,227.384 249.738 C 226.979 250.393,227.402 253.826,228.324 257.365 C 229.246 260.904,230.090 267.320,230.200 271.622 L 230.400 279.444 231.034 271.111 L 231.667 262.778 232.511 275.000 C 232.999 282.061,232.920 288.630,232.323 290.556 C 231.516 293.163,231.383 292.316,231.714 286.667 L 232.138 279.444 231.093 286.111 C 229.870 293.913,227.750 299.949,222.614 310.250 C 218.507 318.488,218.235 319.413,220.278 318.186 C 221.222 317.619,221.178 317.954,220.142 319.231 C 218.359 321.429,217.306 321.728,218.413 319.722 C 218.834 318.958,216.989 320.712,214.312 323.619 C 211.635 326.526,206.694 330.392,203.333 332.210 C 196.357 335.984,196.600 336.744,203.655 333.217 C 206.228 331.931,210.583 328.806,213.332 326.273 L 218.331 321.667 213.888 326.486 C 199.683 341.893,135.611 352.557,123.590 341.514 L 120.556 338.727 124.076 341.172 C 128.511 344.253,137.954 344.942,155.556 343.469 C 168.319 342.402,168.313 342.401,150.556 342.927 C 130.368 343.525,127.684 343.000,120.375 337.024 C 107.715 326.671,102.586 315.390,99.457 291.009 C 98.125 280.633,97.923 279.893,98.344 286.931 C 98.627 291.659,99.107 297.659,99.410 300.264 C 99.946 304.864,99.933 304.889,98.943 301.104 C 98.383 298.961,97.150 289.082,96.204 279.151 C 95.257 269.220,94.212 259.723,93.882 258.047 C 93.304 255.111,93.324 255.096,94.434 257.637 C 95.067 259.087,96.012 264.337,96.534 269.304 C 97.299 276.587,97.507 277.259,97.607 272.778 C 97.909 259.305,93.582 248.741,87.883 249.040 L 85.000 249.192 87.778 249.690 C 91.844 250.419,92.888 251.935,88.924 251.353 L 85.556 250.859 85.474 265.707 C 85.354 287.754,85.564 296.780,86.300 301.111 C 86.664 303.250,86.556 304.619,86.060 304.154 C 85.565 303.688,84.825 298.438,84.417 292.487 C 83.690 281.886,83.672 281.829,83.504 289.679 C 83.224 302.795,91.969 332.772,95.448 330.622 C 96.034 330.260,96.875 330.549,97.317 331.265 C 97.819 332.077,97.639 332.268,96.838 331.773 C 94.359 330.240,95.589 332.976,98.577 335.640 C 100.845 337.661,101.200 337.779,100.000 336.111 C 98.800 334.443,99.155 334.561,101.423 336.583 C 104.566 339.384,105.699 341.314,102.778 338.889 C 101.819 338.093,101.111 337.984,101.111 338.633 C 101.111 342.510,122.436 357.925,127.463 357.682 C 128.792 357.618,128.530 357.308,126.667 356.739 C 120.988 355.005,114.667 351.111,109.356 346.075 L 103.889 340.891 109.444 345.561 C 130.550 363.304,181.884 361.787,212.961 342.502 C 218.085 339.322,220.619 338.463,225.047 338.406 C 231.507 338.322,233.426 337.240,245.418 326.918 C 250.077 322.907,252.389 321.246,250.556 323.227 C 241.502 333.007,231.517 339.442,225.325 339.488 C 220.629 339.523,218.335 340.252,213.937 343.107 C 199.703 352.347,179.164 357.775,154.444 358.828 L 136.111 359.610 151.667 359.795 C 174.433 360.066,198.985 353.924,213.937 344.218 C 218.335 341.363,220.629 340.634,225.325 340.599 C 232.164 340.548,239.308 335.555,258.418 317.470 C 267.539 308.838,272.662 302.407,266.944 306.766 C 265.875 307.581,266.469 306.643,268.263 304.680 C 271.968 300.628,273.661 299.807,270.467 303.611 C 269.313 304.986,269.985 304.643,271.962 302.848 C 275.701 299.452,277.013 296.388,273.611 298.997 C 272.542 299.817,272.879 299.128,274.360 297.466 C 277.356 294.105,278.884 293.356,276.559 296.389 C 275.738 297.458,276.427 297.121,278.089 295.640 C 281.158 292.905,282.259 290.308,279.722 291.792 C 278.958 292.239,279.286 291.518,280.450 290.191 C 282.976 287.311,284.246 286.950,282.100 289.722 C 280.874 291.305,281.055 291.273,283.075 289.550 C 285.701 287.309,286.519 284.846,284.167 286.259 C 283.223 286.826,283.267 286.491,284.303 285.213 C 286.079 283.023,287.180 282.698,285.963 284.722 C 285.396 285.666,285.732 285.622,287.009 284.586 C 289.179 282.826,289.570 280.588,287.500 281.779 C 286.693 282.244,286.499 282.155,287.037 281.567 C 287.546 281.011,288.505 280.556,289.167 280.556 C 289.829 280.556,290.602 279.861,290.885 279.012 C 291.237 277.956,290.915 277.749,289.866 278.357 C 288.961 278.881,288.713 278.831,289.259 278.234 C 289.769 277.677,290.727 277.222,291.389 277.222 C 292.051 277.222,292.824 276.528,293.107 275.679 C 293.450 274.650,293.146 274.429,292.195 275.017 C 291.252 275.600,291.041 275.457,291.572 274.598 C 292.014 273.882,292.816 273.569,293.354 273.902 C 294.694 274.730,296.958 270.259,295.991 268.694 C 295.522 267.936,295.707 267.740,296.455 268.203 C 297.905 269.098,301.313 262.755,307.118 248.361 C 310.968 238.812,312.615 232.608,309.485 239.444 C 307.417 243.960,307.365 242.029,309.421 237.107 C 310.741 233.948,313.333 232.639,313.333 235.131 C 313.333 235.437,312.768 235.338,312.078 234.911 C 311.316 234.440,311.025 234.742,311.337 235.679 C 311.620 236.528,312.394 237.222,313.056 237.222 C 313.718 237.222,314.676 237.677,315.185 238.234 C 315.732 238.831,315.483 238.881,314.578 238.357 C 313.523 237.746,313.220 237.950,313.606 239.012 C 313.914 239.861,314.681 240.447,315.310 240.313 C 315.939 240.180,317.126 240.930,317.949 241.980 C 319.298 243.702,319.254 243.740,317.500 242.364 C 316.431 241.525,315.556 241.339,315.556 241.950 C 315.556 243.339,318.343 245.731,319.091 244.984 C 319.395 244.680,320.599 245.559,321.766 246.938 L 323.889 249.444 321.389 247.328 C 318.090 244.535,318.152 246.698,321.461 249.806 C 324.150 252.333,326.207 253.064,324.962 251.050 C 324.564 250.405,326.909 251.905,330.174 254.382 C 333.440 256.860,339.486 260.665,343.611 262.837 C 347.736 265.010,351.111 267.019,351.111 267.302 C 351.111 268.317,339.303 261.852,332.425 257.071 C 328.564 254.387,325.720 252.701,326.105 253.324 C 327.087 254.912,338.486 262.533,344.312 265.496 L 349.180 267.971 348.578 273.804 C 347.559 283.678,341.509 299.552,329.701 323.333 C 323.480 335.861,318.188 346.556,317.940 347.099 C 317.692 347.643,318.179 347.687,319.023 347.199 C 319.928 346.674,320.176 346.725,319.630 347.322 C 319.120 347.878,318.162 348.333,317.500 348.333 C 316.838 348.333,316.065 349.028,315.782 349.877 C 315.430 350.933,315.752 351.140,316.800 350.532 C 317.705 350.008,317.954 350.058,317.407 350.655 C 316.898 351.212,315.940 351.667,315.278 351.667 C 314.616 351.667,313.843 352.361,313.560 353.210 C 313.208 354.266,313.530 354.473,314.578 353.865 C 315.483 353.341,315.732 353.391,315.185 353.989 C 314.676 354.545,313.718 355.000,313.056 355.000 C 312.394 355.000,311.620 355.695,311.337 356.544 C 310.985 357.599,311.307 357.806,312.356 357.199 C 313.261 356.674,313.510 356.725,312.963 357.322 C 312.454 357.878,311.495 358.333,310.833 358.333 C 310.171 358.333,309.398 359.028,309.115 359.877 C 308.763 360.933,309.085 361.140,310.134 360.532 C 311.039 360.008,311.287 360.058,310.741 360.655 C 310.231 361.212,309.273 361.667,308.611 361.667 C 307.949 361.667,307.176 362.361,306.893 363.210 C 306.537 364.278,306.851 364.469,307.911 363.830 C 309.197 363.056,309.195 363.214,307.897 364.814 C 307.046 365.862,306.087 366.457,305.765 366.136 C 305.016 365.386,301.111 368.887,301.111 370.308 C 301.111 370.899,301.861 370.761,302.778 370.000 C 305.933 367.381,304.439 369.589,300.851 372.848 C 297.818 375.601,297.597 375.677,299.434 373.333 C 300.631 371.806,299.498 372.532,296.916 374.948 C 292.068 379.484,290.287 383.072,294.722 379.367 C 296.097 378.218,295.246 379.391,292.830 381.973 C 288.365 386.744,287.640 387.319,287.954 385.833 C 288.051 385.375,287.845 384.250,287.496 383.333 C 285.448 377.950,284.646 374.438,285.600 375.028 C 286.187 375.390,286.667 376.491,286.667 377.473 C 286.667 378.455,286.979 378.947,287.361 378.565 C 288.582 377.344,279.788 353.479,277.355 351.413 C 275.098 349.495,275.080 349.502,276.667 351.667 C 278.272 353.857,278.261 353.859,275.858 351.812 C 274.518 350.670,273.527 349.182,273.655 348.505 C 273.784 347.829,272.639 347.162,271.111 347.025 L 268.333 346.774 271.111 347.721 C 273.645 348.584,273.680 348.677,271.509 348.778 C 268.313 348.927,267.517 352.624,268.978 360.529 C 269.624 364.024,269.925 367.113,269.645 367.392 C 268.763 368.274,266.688 354.014,267.277 351.111 L 267.840 348.333 266.677 350.988 C 266.037 352.448,265.823 355.448,266.201 357.655 C 267.591 365.748,274.681 394.578,275.164 394.096 C 275.437 393.822,274.388 388.573,272.831 382.431 C 271.274 376.289,270.045 370.605,270.101 369.799 C 270.156 368.993,271.892 374.833,273.959 382.778 C 276.025 390.722,277.519 397.722,277.279 398.333 C 277.039 398.944,276.803 398.486,276.754 397.315 C 276.706 396.144,276.396 395.456,276.065 395.787 C 275.734 396.118,277.715 405.356,280.468 416.317 C 291.370 459.729,302.079 510.570,310.148 557.222 C 313.107 574.333,315.309 585.083,315.041 581.111 L 314.553 573.889 316.097 581.667 C 316.946 585.944,317.606 590.944,317.563 592.778 C 317.487 596.040,317.468 596.028,316.667 592.222 C 315.088 584.722,315.553 594.219,317.211 603.333 L 318.726 611.667 318.306 603.889 L 317.885 596.111 319.415 605.000 C 321.088 614.726,321.535 624.352,319.930 616.111 C 319.364 613.203,319.274 614.547,319.669 620.000 C 320.614 633.045,322.184 640.493,321.659 629.444 C 321.011 615.793,324.982 646.874,327.124 672.222 C 329.862 704.618,333.021 778.406,331.073 764.444 C 330.604 761.083,330.067 751.083,329.879 742.222 C 329.582 728.167,329.487 727.458,329.133 736.667 C 328.537 752.188,329.910 772.398,331.498 771.474 C 332.202 771.064,331.857 771.780,330.732 773.064 C 326.389 778.021,322.783 778.685,284.394 781.600 C 177.462 789.719,115.809 791.882,106.667 787.834 L 103.889 786.604 106.667 787.223 C 112.935 788.620,134.248 788.927,157.778 787.959 L 182.778 786.931 147.778 787.076 C 105.782 787.251,104.547 787.086,104.969 781.359 C 105.137 779.084,105.049 778.472,104.774 780.000 C 103.768 785.583,102.565 784.396,103.431 778.675 C 106.039 761.436,109.751 689.455,110.238 646.667 L 110.498 623.889 111.111 652.222 L 111.724 680.556 111.973 652.117 C 112.251 620.429,111.982 619.233,104.820 620.306 C 101.710 620.772,101.715 620.780,105.212 620.945 C 107.162 621.036,108.990 621.486,109.274 621.944 C 109.559 622.403,107.338 622.605,104.340 622.393 L 98.889 622.008 99.081 629.615 L 99.272 637.222 100.053 630.556 C 100.985 622.605,100.627 633.558,98.330 683.333 C 95.166 751.883,94.298 767.299,93.267 773.260 C 90.667 788.284,93.144 795.215,101.952 797.554 C 105.808 798.579,105.879 798.668,102.925 798.774 C 100.597 798.858,98.532 797.683,95.261 794.411 L 90.783 789.933 91.378 779.689 C 91.775 772.860,91.666 770.926,91.051 773.889 C 88.557 785.898,90.171 792.723,96.549 797.137 L 100.556 799.910 168.557 799.639 C 205.957 799.490,236.957 798.964,237.446 798.471 C 237.934 797.977,230.833 797.822,221.667 798.126 C 201.921 798.780,205.412 798.353,238.333 796.085 C 277.417 793.393,297.981 790.045,314.030 783.760 C 318.230 782.115,324.167 780.472,327.222 780.107 C 332.062 779.530,332.835 779.087,333.225 776.667 L 333.673 773.889 334.503 776.667 C 335.274 779.244,335.342 779.179,335.445 775.768 C 335.525 773.115,335.169 772.317,334.167 772.903 C 333.403 773.350,333.730 772.629,334.894 771.302 C 337.418 768.425,338.704 768.055,336.525 770.833 C 335.115 772.631,335.160 772.652,337.121 771.111 C 343.211 766.326,344.439 760.070,344.207 735.000 L 343.991 711.667 343.384 736.111 C 342.956 753.366,342.354 761.209,341.336 762.778 C 339.996 764.842,339.957 764.803,340.780 762.222 C 342.112 758.050,341.655 702.776,340.142 685.000 C 336.411 641.152,330.967 597.516,324.357 558.480 C 323.129 551.227,322.315 544.727,322.548 544.035 C 322.781 543.344,323.918 548.778,325.075 556.111 C 326.231 563.444,327.339 568.623,327.536 567.619 C 327.880 565.869,322.020 530.278,320.062 522.222 C 318.446 515.577,318.877 522.371,320.556 530.000 C 321.429 533.972,322.125 538.472,322.101 540.000 C 322.078 541.528,319.855 531.528,317.163 517.778 C 314.471 504.028,312.468 492.278,312.713 491.667 C 312.958 491.056,313.237 491.806,313.333 493.333 C 313.430 494.861,313.749 495.522,314.043 494.802 C 314.336 494.082,310.297 474.232,305.066 450.692 C 299.835 427.151,295.498 406.740,295.427 405.334 C 295.327 403.360,295.179 403.234,294.778 404.781 C 294.493 405.883,295.334 411.807,296.649 417.947 C 297.963 424.086,298.755 429.393,298.408 429.740 C 298.062 430.087,297.767 429.912,297.755 429.352 C 297.742 428.792,296.512 422.378,295.021 415.100 C 293.221 406.311,292.658 401.274,293.344 400.100 C 293.912 399.128,294.392 398.665,294.411 399.070 C 294.458 400.098,307.778 386.125,307.778 385.047 C 307.778 384.566,306.903 384.837,305.833 385.649 C 304.764 386.461,305.612 385.272,307.718 383.007 C 312.141 378.250,313.924 377.392,309.926 381.944 C 308.190 383.922,308.710 383.649,311.399 381.171 C 315.189 377.680,317.133 374.450,314.444 376.111 C 312.636 377.229,313.178 375.954,315.213 374.303 C 316.834 372.988,316.961 373.007,316.133 374.444 C 315.534 375.486,316.079 375.317,317.587 373.994 C 320.451 371.482,320.868 369.047,318.056 371.253 C 316.301 372.629,316.257 372.591,317.607 370.869 C 318.429 369.819,319.617 369.069,320.245 369.202 C 320.874 369.335,321.641 368.750,321.950 367.901 C 322.336 366.839,322.032 366.634,320.977 367.246 C 320.072 367.770,319.824 367.720,320.370 367.123 C 320.880 366.566,321.838 366.111,322.500 366.111 C 323.162 366.111,323.935 365.417,324.218 364.568 C 324.570 363.512,324.248 363.305,323.200 363.912 C 322.295 364.437,322.046 364.386,322.593 363.789 C 323.102 363.233,324.060 362.778,324.722 362.778 C 325.384 362.778,326.157 362.083,326.440 361.234 C 326.792 360.178,326.470 359.971,325.422 360.579 C 324.517 361.104,324.268 361.053,324.815 360.456 C 325.324 359.900,326.282 359.444,326.944 359.444 C 327.606 359.444,328.380 358.750,328.663 357.901 C 329.006 356.872,328.701 356.651,327.750 357.239 C 326.808 357.822,326.596 357.680,327.127 356.820 C 327.570 356.105,328.378 355.795,328.923 356.132 C 330.264 356.961,334.729 348.027,333.759 346.457 C 333.298 345.710,333.491 345.522,334.242 345.986 C 335.693 346.882,349.695 319.610,357.222 301.229 C 364.926 282.416,369.777 261.111,366.357 261.111 C 362.146 261.111,354.291 256.524,355.666 254.867 C 356.412 253.968,357.646 253.471,358.407 253.763 C 359.168 254.056,360.588 253.414,361.562 252.338 C 364.210 249.412,363.698 248.236,360.833 250.661 L 358.333 252.778 360.426 250.304 C 361.577 248.943,362.927 248.082,363.426 248.391 C 364.714 249.187,366.928 244.654,365.991 243.139 C 365.526 242.387,365.707 242.185,366.439 242.637 C 367.114 243.054,368.191 242.414,368.833 241.215 C 370.350 238.381,370.311 237.454,368.717 238.439 C 367.916 238.935,367.736 238.744,368.238 237.931 C 368.681 237.216,369.493 236.909,370.043 237.249 C 371.639 238.235,381.173 218.138,381.860 212.342 C 382.515 206.809,382.588 206.914,372.500 198.806 C 371.736 198.192,371.111 196.562,371.111 195.184 C 371.111 190.961,364.815 173.864,363.382 174.194 C 362.653 174.362,362.402 173.942,362.823 173.261 C 363.244 172.579,361.744 170.133,359.491 167.825 L 355.393 163.628 356.749 152.439 C 359.135 132.750,351.639 123.531,338.047 129.438 M212.163 132.901 C 211.485 134.667,209.718 140.361,208.236 145.556 C 206.755 150.750,205.839 153.012,206.202 150.582 C 207.024 145.075,212.205 128.501,212.890 129.186 C 213.168 129.464,212.841 131.136,212.163 132.901 M62.222 139.676 C 62.222 140.510,61.225 139.628,56.620 134.722 L 51.667 129.444 56.944 134.398 C 59.847 137.122,62.222 139.497,62.222 139.676 M356.134 147.778 C 355.742 152.361,355.063 157.823,354.627 159.915 C 353.909 163.354,354.262 164.142,358.305 168.124 L 362.778 172.529 357.778 168.234 C 355.028 165.872,352.897 163.570,353.043 163.119 C 354.633 158.199,355.725 140.673,354.605 138.055 C 353.362 135.150,353.385 135.109,355.073 137.222 C 356.508 139.018,356.712 141.044,356.134 147.778 M221.888 144.032 C 221.207 146.249,220.488 147.575,220.289 146.978 C 219.898 145.805,221.859 140.000,222.646 140.000 C 222.910 140.000,222.569 141.814,221.888 144.032 M343.995 143.505 C 344.434 144.216,344.304 144.489,343.704 144.118 C 343.108 143.750,341.031 144.415,339.088 145.597 C 337.145 146.778,335.556 147.495,335.556 147.190 C 335.556 145.299,343.075 142.016,343.995 143.505 M341.643 150.141 C 341.018 153.837,341.161 154.556,342.379 153.851 C 343.268 153.336,343.508 153.393,342.963 153.989 C 342.454 154.545,341.495 155.000,340.833 155.000 C 340.171 155.000,339.398 155.695,339.115 156.544 C 338.763 157.599,339.085 157.806,340.134 157.199 C 341.039 156.674,341.287 156.725,340.741 157.322 C 340.231 157.878,339.273 158.333,338.611 158.333 C 337.949 158.333,337.176 159.028,336.893 159.877 C 336.542 160.929,336.867 161.141,337.911 160.543 C 338.755 160.061,337.802 161.408,335.795 163.537 C 332.361 167.179,328.889 168.626,328.889 166.416 C 328.889 165.871,328.409 165.721,327.822 166.084 C 327.190 166.474,327.234 165.369,327.931 163.371 C 329.397 159.166,330.258 158.981,329.397 163.056 C 329.042 164.736,330.282 162.626,332.153 158.365 C 336.015 149.573,336.011 149.587,334.273 150.662 C 333.472 151.157,333.292 150.966,333.794 150.154 C 334.236 149.438,334.997 149.099,335.484 149.400 C 335.971 149.701,337.264 148.959,338.357 147.752 C 341.454 144.329,342.497 145.087,341.643 150.141 M343.324 150.798 C 342.121 152.675,342.088 152.672,342.694 150.742 C 343.046 149.623,343.391 147.873,343.462 146.854 C 343.578 145.184,343.641 145.189,344.093 146.910 C 344.368 147.960,344.023 149.710,343.324 150.798 M217.317 162.778 C 216.463 167.056,215.717 169.514,215.660 168.241 C 215.525 165.247,218.070 152.533,218.524 153.934 C 218.714 154.520,218.171 158.500,217.317 162.778 M316.194 160.653 C 315.318 163.044,314.566 164.450,314.523 163.777 C 314.414 162.077,316.827 155.345,317.355 155.874 C 317.592 156.111,317.070 158.261,316.194 160.653 M77.081 164.444 C 77.462 165.972,76.811 165.222,75.635 162.778 C 74.460 160.333,73.481 157.833,73.460 157.222 C 73.402 155.523,76.298 161.298,77.081 164.444 M312.752 173.094 C 311.799 176.812,310.320 185.191,309.463 191.714 C 308.607 198.238,307.625 203.856,307.282 204.200 C 306.017 205.465,310.286 176.945,312.444 169.715 C 314.424 163.079,314.659 165.651,312.752 173.094 M328.439 169.061 C 328.885 169.781,328.748 170.044,328.129 169.661 C 326.937 168.925,324.585 178.846,321.524 197.513 C 320.496 203.784,319.432 208.691,319.159 208.419 C 318.569 207.829,320.442 195.935,323.546 180.556 C 326.228 167.269,326.678 166.211,328.439 169.061 M200.562 186.875 C 200.133 194.399,199.965 202.056,200.189 203.889 C 200.412 205.722,200.981 199.784,201.453 190.692 C 201.924 181.600,202.092 173.944,201.826 173.678 C 201.560 173.412,200.992 179.351,200.562 186.875 M82.033 180.556 C 82.007 182.342,81.826 182.233,81.111 180.000 C 79.894 176.201,79.894 173.280,81.111 176.111 C 81.636 177.333,82.051 179.333,82.033 180.556 M327.639 183.611 C 327.516 190.711,327.408 191.102,326.726 186.906 C 326.003 182.460,326.381 175.556,327.348 175.556 C 327.585 175.556,327.715 179.181,327.639 183.611 M351.111 178.609 C 352.028 179.546,352.153 179.963,351.389 179.535 C 350.530 179.054,350.000 179.443,350.000 180.556 C 350.000 181.673,350.525 182.055,351.389 181.565 C 352.153 181.132,351.099 182.557,349.047 184.732 C 346.995 186.906,344.921 190.357,344.439 192.398 C 343.626 195.837,343.552 195.889,343.447 193.094 C 343.377 191.230,344.660 188.471,346.808 185.872 L 350.282 181.667 346.252 185.817 C 340.358 191.887,342.752 203.582,349.821 203.246 C 351.340 203.173,351.372 203.050,350.000 202.545 C 347.666 201.687,344.444 198.751,344.444 197.482 C 344.444 196.898,345.362 197.554,346.483 198.938 C 348.321 201.207,348.897 201.331,352.317 200.188 C 355.557 199.105,355.827 199.138,354.167 200.416 C 352.240 201.898,351.344 205.118,353.173 203.988 C 353.696 203.665,353.853 204.760,353.523 206.423 L 352.923 209.444 352.128 206.667 L 351.333 203.889 351.222 206.772 C 351.072 210.684,353.976 212.984,360.232 213.909 L 365.463 214.683 361.621 222.314 C 357.445 230.605,357.116 231.651,359.061 230.449 C 359.862 229.954,360.041 230.145,359.539 230.958 C 359.097 231.673,358.295 231.986,357.757 231.654 C 357.219 231.321,356.253 232.030,355.611 233.229 C 354.094 236.064,354.133 236.990,355.727 236.005 C 356.528 235.510,356.708 235.701,356.206 236.513 C 355.764 237.229,354.962 237.542,354.423 237.209 C 353.885 236.877,352.920 237.586,352.278 238.785 C 350.735 241.667,350.805 242.530,352.500 241.554 C 353.307 241.090,353.501 241.179,352.963 241.766 C 352.454 242.323,351.495 242.778,350.833 242.778 C 350.171 242.778,349.398 243.472,349.115 244.321 C 348.759 245.389,349.073 245.580,350.134 244.941 C 351.431 244.160,351.434 244.305,350.152 245.886 C 349.319 246.913,348.250 247.514,347.778 247.222 C 346.543 246.459,344.304 249.470,345.287 250.572 C 345.740 251.079,342.989 249.338,339.173 246.702 C 335.356 244.065,331.606 241.114,330.839 240.142 C 330.072 239.171,331.444 239.915,333.889 241.796 C 336.333 243.677,339.833 246.081,341.667 247.137 C 344.963 249.037,344.969 249.036,342.222 247.029 C 340.694 245.913,337.396 243.132,334.892 240.849 C 332.388 238.565,330.085 236.952,329.773 237.264 C 329.461 237.576,328.509 236.973,327.658 235.925 C 326.360 234.325,326.358 234.167,327.644 234.941 C 328.704 235.580,329.018 235.389,328.663 234.321 C 328.380 233.472,327.606 232.778,326.944 232.778 C 326.282 232.778,325.324 232.323,324.815 231.766 C 324.268 231.169,324.517 231.119,325.422 231.643 C 326.470 232.251,326.792 232.044,326.440 230.988 C 326.157 230.139,325.384 229.444,324.722 229.444 C 324.060 229.444,323.102 228.989,322.593 228.433 C 322.055 227.845,322.249 227.756,323.056 228.221 C 325.030 229.357,324.812 228.430,321.632 222.154 C 319.241 217.436,318.979 215.985,319.883 212.469 C 320.468 210.194,321.839 202.833,322.931 196.111 C 324.022 189.389,325.079 184.889,325.279 186.111 C 326.278 192.224,326.655 192.848,329.487 193.082 C 331.083 193.214,333.412 192.775,334.662 192.106 C 336.277 191.242,336.719 191.238,336.190 192.094 C 335.781 192.756,333.846 193.761,331.890 194.327 C 329.366 195.057,329.016 195.384,330.683 195.455 C 333.195 195.562,338.889 191.675,338.889 189.854 C 338.889 189.251,338.312 189.115,337.606 189.551 C 336.805 190.046,336.625 189.855,337.127 189.042 C 337.570 188.327,338.379 188.018,338.926 188.356 C 339.473 188.694,341.175 186.496,342.708 183.471 C 345.030 178.890,345.918 178.052,348.026 178.461 L 350.556 178.952 347.953 177.807 C 346.522 177.177,344.819 176.991,344.170 177.392 C 343.461 177.830,343.318 177.591,343.811 176.793 C 344.793 175.205,348.742 176.187,351.111 178.609 M367.036 184.167 C 370.205 194.005,371.218 199.086,369.839 198.234 C 369.317 197.911,368.889 196.514,368.889 195.129 C 368.889 193.744,367.639 188.936,366.111 184.444 C 363.128 175.673,363.097 175.556,363.798 175.556 C 364.053 175.556,365.510 179.431,367.036 184.167 M85.977 200.458 C 86.335 203.950,85.754 202.289,84.456 196.111 C 83.301 190.611,82.381 185.361,82.412 184.444 C 82.507 181.634,85.360 194.450,85.977 200.458 M214.892 202.222 C 214.892 211.694,215.062 215.569,215.270 210.833 C 215.479 206.097,215.479 198.347,215.270 193.611 C 215.062 188.875,214.892 192.750,214.892 202.222 M377.693 203.988 C 381.228 206.963,382.051 211.183,380.055 216.111 C 379.452 217.602,379.203 216.347,379.300 212.296 C 379.436 206.610,379.225 206.110,375.669 203.685 C 373.593 202.269,372.429 201.111,373.084 201.111 C 373.738 201.111,375.812 202.406,377.693 203.988 M363.154 212.290 C 368.021 213.198,367.932 213.223,361.682 212.699 C 358.023 212.392,354.523 211.603,353.904 210.946 C 353.109 210.102,353.542 209.982,355.377 210.537 C 356.806 210.970,360.306 211.758,363.154 212.290 M104.444 214.348 C 101.083 214.706,110.083 215.000,124.444 215.000 C 138.806 215.000,147.556 214.679,143.889 214.287 C 135.771 213.419,112.813 213.455,104.444 214.348 M157.222 216.817 C 160.889 217.364,170.078 218.823,177.642 220.059 C 185.207 221.296,191.609 222.095,191.870 221.834 C 192.714 220.990,158.103 215.477,153.333 215.696 C 151.806 215.766,153.556 216.271,157.222 216.817 M377.354 222.957 C 376.414 224.692,375.625 225.760,375.600 225.330 C 375.525 224.009,378.110 218.851,378.601 219.342 C 378.855 219.596,378.294 221.223,377.354 222.957 M119.207 229.711 C 122.743 229.932,128.243 229.930,131.429 229.707 C 134.615 229.483,131.722 229.302,125.000 229.305 C 118.278 229.307,115.671 229.490,119.207 229.711 M90.324 230.825 C 94.474 231.039,100.974 231.038,104.768 230.821 C 108.562 230.605,105.167 230.430,97.222 230.432 C 89.278 230.434,86.174 230.611,90.324 230.825 M142.534 230.818 C 145.455 231.048,149.955 231.045,152.534 230.812 C 155.112 230.579,152.722 230.391,147.222 230.394 C 141.722 230.398,139.612 230.588,142.534 230.818 M178.496 240.799 C 178.115 243.110,177.797 246.306,177.790 247.901 C 177.780 250.357,177.371 250.725,175.130 250.297 C 173.674 250.018,172.224 250.213,171.907 250.729 C 171.591 251.245,172.968 251.702,174.968 251.744 L 178.605 251.822 179.280 244.592 C 180.031 236.545,179.569 234.308,178.496 240.799 M244.816 271.667 C 244.715 280.833,244.104 290.583,243.459 293.333 L 242.287 298.333 242.772 292.778 C 244.802 269.530,244.536 258.719,241.733 250.556 C 241.313 249.333,241.876 249.833,242.985 251.667 C 244.719 254.535,244.974 257.325,244.816 271.667 M304.020 252.957 C 303.080 254.692,302.291 255.760,302.267 255.330 C 302.191 254.009,304.776 248.851,305.267 249.342 C 305.522 249.596,304.960 251.223,304.020 252.957 M83.758 263.889 C 83.760 271.222,83.940 274.078,84.157 270.234 C 84.375 266.391,84.373 260.391,84.153 256.901 C 83.933 253.411,83.755 256.556,83.758 263.889 M230.986 260.000 C 230.971 261.682,230.353 260.587,229.418 257.222 C 227.510 250.350,227.525 249.609,229.485 253.889 C 230.324 255.722,231.000 258.472,230.986 260.000 M289.498 255.452 C 287.057 260.172,286.265 259.806,288.550 255.014 C 289.567 252.883,290.596 251.336,290.837 251.577 C 291.078 251.818,290.475 253.562,289.498 255.452 M143.695 254.894 C 139.229 256.913,136.557 260.965,136.141 266.347 C 135.840 270.242,135.881 270.307,136.687 267.222 C 137.390 264.531,137.526 265.017,137.390 269.742 C 137.247 274.717,137.014 275.310,135.833 273.696 C 134.260 271.545,133.949 273.052,135.470 275.455 C 136.137 276.509,139.858 277.293,146.842 277.851 L 157.222 278.679 147.578 278.506 C 142.273 278.411,138.643 278.730,139.511 279.216 C 142.433 280.850,157.219 279.651,157.247 277.778 C 157.262 276.769,158.090 276.254,159.342 276.472 C 160.863 276.737,161.229 276.353,160.719 275.026 C 160.314 273.969,160.483 273.501,161.126 273.898 C 162.464 274.725,163.918 271.048,164.725 264.793 C 165.762 256.754,152.935 250.716,143.695 254.894 M157.258 256.054 C 159.377 256.940,161.111 257.914,161.111 258.220 C 161.111 258.525,159.377 258.051,157.258 257.166 C 155.139 256.280,152.123 255.556,150.556 255.556 C 148.989 255.556,145.972 256.280,143.853 257.166 C 141.734 258.051,140.000 258.527,140.000 258.223 C 140.000 255.219,151.731 253.745,157.258 256.054 M170.556 259.470 C 170.556 263.259,170.316 263.960,169.584 262.319 C 168.793 260.546,169.347 254.444,170.299 254.444 C 170.440 254.444,170.556 256.706,170.556 259.470 M356.278 255.285 C 355.993 255.747,357.838 256.989,360.379 258.044 C 363.624 259.391,364.338 259.483,362.778 258.353 C 361.556 257.467,359.952 256.225,359.214 255.593 C 357.616 254.225,356.975 254.158,356.278 255.285 M163.332 266.122 C 162.913 268.878,162.264 271.440,161.889 271.815 C 161.234 272.470,161.957 265.373,162.838 262.500 C 163.779 259.430,164.048 261.401,163.332 266.122 M365.121 272.279 C 364.173 277.305,363.063 281.723,362.654 282.097 C 362.244 282.472,362.201 281.528,362.556 280.000 C 362.912 278.472,363.789 273.820,364.504 269.662 C 365.219 265.503,366.039 262.335,366.325 262.621 C 366.611 262.907,366.069 267.253,365.121 272.279 M188.160 271.389 C 189.110 273.681,189.637 275.556,189.331 275.556 C 188.743 275.556,185.556 268.394,185.556 267.073 C 185.556 265.725,186.377 267.087,188.160 271.389 M350.778 274.167 C 350.118 279.593,345.707 294.966,345.010 294.269 C 344.795 294.055,345.830 289.700,347.310 284.591 C 348.789 279.483,350.000 273.860,350.000 272.096 C 350.000 270.332,350.320 268.889,350.710 268.889 C 351.101 268.889,351.132 271.264,350.778 274.167 M175.693 279.444 C 175.641 280.056,176.294 283.056,177.144 286.111 C 177.995 289.167,178.696 290.667,178.704 289.444 C 178.719 287.079,175.854 277.564,175.693 279.444 M361.111 288.333 C 359.374 293.598,358.578 292.802,360.222 287.444 C 360.916 285.184,361.699 283.551,361.964 283.815 C 362.228 284.079,361.844 286.113,361.111 288.333 M197.636 291.944 C 196.309 293.636,196.328 293.722,197.778 292.606 C 198.694 291.901,200.694 291.094,202.222 290.813 L 205.000 290.303 202.080 290.151 C 200.471 290.068,198.477 290.873,197.636 291.944 M205.629 299.480 C 204.992 303.289,204.670 303.967,204.590 301.667 C 204.473 298.295,205.538 292.945,206.195 293.602 C 206.391 293.799,206.136 296.443,205.629 299.480 M357.130 298.796 C 356.111 301.342,355.095 303.243,354.873 303.021 C 354.650 302.799,355.291 300.522,356.296 297.963 C 357.302 295.404,358.317 293.502,358.553 293.738 C 358.789 293.974,358.148 296.250,357.130 298.796 M240.596 305.703 C 239.639 307.761,239.149 308.444,239.506 307.222 C 239.863 306.000,240.473 303.500,240.862 301.667 C 241.270 299.739,241.730 299.099,241.952 300.147 C 242.162 301.145,241.552 303.645,240.596 305.703 M340.687 305.180 C 339.747 306.914,338.958 307.982,338.933 307.552 C 338.858 306.232,341.443 301.073,341.934 301.564 C 342.188 301.818,341.627 303.445,340.687 305.180 M88.700 312.222 C 88.720 313.243,88.363 313.028,87.778 311.667 C 87.253 310.444,86.838 308.444,86.856 307.222 C 86.894 304.593,88.643 309.335,88.700 312.222 M103.919 318.674 C 103.404 319.189,99.954 307.908,100.101 306.187 C 100.157 305.534,101.137 307.979,102.278 311.620 C 103.420 315.260,104.158 318.435,103.919 318.674 M139.149 312.348 L 142.778 315.808 138.972 312.812 C 136.530 310.889,134.252 309.990,132.616 310.303 C 131.214 310.571,130.332 310.362,130.655 309.839 C 131.863 307.885,135.637 309.000,139.149 312.348 M260.000 315.000 C 257.301 317.750,254.843 320.000,254.537 320.000 C 254.232 320.000,256.190 317.750,258.889 315.000 C 261.588 312.250,264.046 310.000,264.352 310.000 C 264.657 310.000,262.699 312.250,260.000 315.000 M177.567 311.920 C 185.234 312.864,175.539 319.287,163.889 320.982 C 159.133 321.673,158.337 321.988,161.111 322.081 C 166.788 322.269,173.151 320.268,179.315 316.355 C 185.173 312.637,184.548 311.148,177.222 311.367 C 173.959 311.465,173.966 311.476,177.567 311.920 M192.778 322.883 C 174.233 339.593,150.251 342.341,136.041 329.384 L 131.667 325.395 136.248 328.881 C 151.992 340.863,174.264 338.248,192.222 322.310 C 194.972 319.869,197.472 317.874,197.778 317.875 C 198.083 317.876,195.833 320.130,192.778 322.883 M115.000 333.333 C 118.010 336.389,120.222 338.889,119.916 338.889 C 119.611 338.889,116.898 336.389,113.889 333.333 C 110.879 330.278,108.667 327.778,108.972 327.778 C 109.278 327.778,111.990 330.278,115.000 333.333 M340.556 334.444 C 339.608 336.278,338.582 337.778,338.276 337.778 C 337.971 337.778,338.496 336.278,339.444 334.444 C 340.392 332.611,341.418 331.111,341.724 331.111 C 342.029 331.111,341.504 332.611,340.556 334.444 M190.000 337.366 C 187.250 338.241,181.250 339.647,176.667 340.490 C 172.083 341.333,169.833 342.064,171.667 342.115 C 175.473 342.220,192.652 338.292,195.397 336.689 C 197.900 335.228,195.954 335.472,190.000 337.366 M92.500 342.988 C 93.569 343.268,95.319 343.268,96.389 342.988 C 97.458 342.709,96.583 342.480,94.444 342.480 C 92.306 342.480,91.431 342.709,92.500 342.988 M89.484 346.623 C 88.400 347.821,87.010 348.696,86.395 348.567 C 85.781 348.438,85.025 349.028,84.717 349.877 C 84.341 350.912,84.626 351.130,85.583 350.539 C 86.526 349.956,86.737 350.098,86.206 350.958 C 85.764 351.673,84.962 351.986,84.423 351.654 C 83.084 350.826,80.820 355.297,81.787 356.861 C 82.255 357.618,82.071 357.815,81.325 357.355 C 79.791 356.407,75.146 365.105,76.241 366.876 C 76.693 367.608,76.510 367.812,75.799 367.373 C 74.251 366.416,61.775 389.455,62.632 391.689 C 62.974 392.579,62.719 393.188,62.067 393.042 C 60.701 392.738,52.236 412.775,52.321 416.111 L 52.378 418.333 53.429 416.111 C 54.325 414.213,54.398 414.312,53.924 416.787 C 51.246 430.791,49.676 471.864,48.663 554.444 C 48.393 576.461,48.363 576.108,47.778 543.889 L 47.172 510.556 46.920 543.646 C 46.723 569.349,46.977 576.821,48.056 577.115 C 58.089 579.848,62.232 581.515,63.998 583.528 C 65.160 584.853,65.401 585.520,64.533 585.009 C 63.368 584.323,63.134 584.545,63.639 585.860 C 64.014 586.838,64.890 590.774,65.585 594.606 C 67.947 607.635,79.761 620.281,86.897 617.418 C 87.687 617.101,87.184 616.803,85.778 616.754 C 82.087 616.628,77.709 614.074,73.891 609.821 L 70.560 606.111 74.447 609.589 C 81.426 615.834,81.766 615.894,110.531 616.034 C 129.340 616.125,137.939 616.565,139.649 617.526 C 143.168 619.502,153.934 619.240,157.539 617.090 L 160.556 615.292 157.778 617.621 C 156.250 618.902,154.000 620.020,152.778 620.104 C 150.827 620.239,150.800 620.321,152.553 620.776 C 159.415 622.557,166.981 610.036,167.122 596.667 C 167.209 588.516,167.527 587.021,169.444 585.757 C 171.343 584.504,171.370 584.383,169.631 584.923 C 168.512 585.271,166.857 585.556,165.955 585.556 C 164.937 585.556,164.631 586.084,165.148 586.944 C 165.796 588.024,165.593 588.019,164.237 586.921 C 162.957 585.884,161.700 585.809,159.516 586.639 C 157.572 587.379,156.777 587.387,157.224 586.663 C 157.601 586.054,157.213 585.556,156.362 585.556 C 155.511 585.556,154.743 586.181,154.656 586.944 C 153.750 594.845,151.665 603.168,150.173 604.839 C 149.161 605.972,148.583 607.175,148.889 607.511 C 149.194 607.847,148.603 608.245,147.573 608.396 C 146.544 608.547,144.794 607.634,143.685 606.367 C 142.575 605.099,142.357 604.468,143.200 604.964 C 144.252 605.583,144.572 605.381,144.218 604.321 C 143.935 603.472,143.162 602.778,142.500 602.778 C 141.838 602.778,140.880 602.323,140.370 601.766 C 139.832 601.179,140.026 601.090,140.833 601.554 C 143.913 603.326,141.962 599.914,138.297 597.119 L 134.372 594.125 131.598 596.732 C 130.072 598.165,129.058 599.950,129.346 600.699 C 130.117 602.710,127.165 604.687,124.228 604.125 C 121.909 603.682,121.950 603.622,124.657 603.485 C 126.301 603.401,127.911 602.906,128.234 602.383 C 128.557 601.860,127.712 601.616,126.355 601.841 C 124.551 602.141,123.293 601.304,121.667 598.721 C 117.446 592.017,111.318 592.265,107.957 599.278 C 106.873 601.538,105.853 602.269,104.334 601.871 C 103.092 601.547,102.503 601.778,102.906 602.430 C 103.285 603.042,104.770 603.318,106.208 603.043 C 107.645 602.768,108.557 602.971,108.234 603.494 C 107.159 605.233,103.705 604.476,101.561 602.031 C 100.397 600.704,100.134 600.024,100.977 600.519 C 101.976 601.106,102.354 600.950,102.061 600.071 C 101.813 599.329,101.202 598.808,100.702 598.914 C 100.202 599.019,98.464 597.849,96.841 596.313 C 92.912 592.596,87.778 591.815,87.778 594.934 C 87.778 595.815,87.324 596.816,86.770 597.158 C 86.216 597.501,85.990 596.655,86.268 595.279 C 86.625 593.515,86.313 593.760,85.208 596.111 C 84.052 598.572,83.960 599.880,84.857 601.111 C 85.526 602.028,84.956 601.825,83.592 600.661 C 81.050 598.493,80.233 597.104,82.222 598.333 C 84.268 599.597,83.362 596.669,81.111 594.742 C 79.889 593.696,78.897 592.326,78.906 591.698 C 78.915 591.069,79.408 591.306,80.000 592.222 C 80.935 593.669,81.079 593.648,81.094 592.063 C 81.125 588.791,84.547 588.413,120.000 587.763 L 155.000 587.121 122.742 586.894 C 98.593 586.724,89.027 587.045,84.687 588.171 C 78.340 589.817,77.169 589.554,81.944 587.555 C 83.934 586.722,99.346 586.002,126.111 585.491 C 148.722 585.059,168.084 584.349,169.136 583.913 C 172.155 582.661,172.586 576.675,170.579 563.873 C 169.557 557.354,168.945 551.795,169.221 551.520 C 170.199 550.542,173.526 575.862,172.942 579.841 L 172.348 583.889 173.578 580.206 C 174.559 577.265,174.294 573.372,172.260 560.864 C 169.454 543.609,167.524 535.751,168.363 545.000 C 168.640 548.056,166.359 538.806,163.295 524.444 C 157.026 495.064,155.997 489.415,158.237 496.667 C 161.079 505.867,160.039 498.840,156.205 482.936 C 151.752 464.462,141.017 431.319,137.474 425.104 C 132.511 416.398,125.268 414.776,122.584 421.770 C 121.953 423.415,124.366 433.782,125.189 432.959 C 125.430 432.718,124.994 430.153,124.220 427.259 C 122.879 422.246,122.936 421.898,125.418 419.888 C 128.776 417.169,129.265 417.217,132.994 420.637 L 136.111 423.495 132.633 421.082 C 125.006 415.788,123.001 420.322,127.098 433.600 C 128.558 438.330,129.346 441.949,128.850 441.643 C 128.354 441.336,127.613 439.556,127.202 437.686 C 126.791 435.816,126.233 434.508,125.960 434.780 C 125.688 435.052,127.796 442.963,130.645 452.360 C 133.494 461.756,137.974 477.694,140.602 487.778 C 143.229 497.861,145.413 505.361,145.454 504.444 C 145.496 503.528,143.541 495.064,141.110 485.636 C 138.679 476.209,136.874 468.311,137.099 468.087 C 138.109 467.076,150.424 518.179,149.694 520.352 C 149.451 521.075,148.609 518.269,147.824 514.117 C 147.039 509.964,146.177 506.786,145.908 507.055 C 145.356 507.607,151.069 536.918,151.896 537.778 C 152.190 538.083,152.155 535.833,151.818 532.778 C 151.474 529.656,152.140 531.603,153.339 537.222 C 155.467 547.200,156.301 563.849,154.722 564.832 C 154.264 565.117,154.029 561.522,154.200 556.842 C 154.371 552.162,154.098 546.083,153.593 543.333 C 152.901 539.570,152.687 541.807,152.726 552.373 C 152.792 570.362,151.960 571.705,141.344 570.722 C 132.824 569.934,132.222 569.593,132.222 565.569 C 132.222 562.606,131.808 562.299,126.389 561.247 C 116.124 559.254,115.798 559.158,118.889 559.044 C 120.417 558.988,123.603 559.391,125.969 559.940 C 128.648 560.562,129.878 560.545,129.230 559.896 C 127.343 558.010,116.164 558.098,116.136 560.000 C 116.122 560.917,115.361 561.667,114.444 561.667 C 113.377 561.667,112.707 562.865,112.581 565.000 L 112.385 568.333 113.333 565.000 L 114.282 561.667 114.085 564.956 C 113.937 567.436,113.205 568.434,111.111 569.012 C 108.602 569.704,108.710 569.802,112.222 570.017 L 116.111 570.256 111.667 571.175 C 109.222 571.680,103.472 572.031,98.889 571.954 L 90.556 571.815 99.444 571.111 L 108.333 570.408 100.939 570.204 L 93.545 570.000 94.147 565.511 C 95.206 557.618,87.804 553.151,79.444 556.639 C 78.076 557.210,79.582 557.344,83.367 556.986 C 88.478 556.504,89.786 556.755,91.145 558.481 C 92.649 560.392,92.624 560.435,90.824 559.023 C 89.438 557.936,87.341 557.706,83.602 558.231 C 80.704 558.638,77.716 559.036,76.961 559.115 C 75.184 559.302,74.107 562.741,74.972 565.466 C 75.825 568.155,72.742 569.295,67.350 568.284 C 61.971 567.275,61.832 565.806,62.524 517.238 C 63.075 478.594,63.049 477.788,62.084 503.889 C 60.751 539.956,61.169 566.063,63.111 568.002 C 64.032 568.921,67.257 569.407,72.000 569.342 C 78.187 569.257,78.787 569.395,75.556 570.160 C 70.541 571.345,63.863 570.313,62.008 568.065 C 59.327 564.816,61.356 443.922,64.392 426.001 C 65.062 422.050,65.213 424.215,64.945 433.889 L 64.575 447.222 65.661 434.002 C 66.559 423.066,67.434 419.033,70.720 410.668 C 72.906 405.106,74.763 399.478,74.847 398.162 C 74.931 396.845,75.323 395.967,75.717 396.211 C 76.785 396.871,77.900 393.318,77.054 391.950 C 76.590 391.199,76.860 391.100,77.795 391.677 C 78.872 392.343,79.071 392.076,78.535 390.680 C 78.114 389.583,78.254 389.052,78.866 389.430 C 80.251 390.286,88.088 374.734,87.088 373.116 C 86.640 372.391,86.826 372.189,87.536 372.628 C 89.343 373.745,98.658 355.952,99.387 349.990 L 99.997 345.000 98.483 350.867 C 97.651 354.094,96.572 357.094,96.086 357.534 C 95.599 357.973,95.555 357.356,95.987 356.161 C 99.632 346.076,95.484 339.993,89.484 346.623 M287.907 381.323 C 287.717 384.082,289.522 384.708,291.263 382.488 C 292.617 380.760,292.581 380.709,290.926 382.003 C 289.357 383.230,288.995 383.146,288.555 381.448 C 288.103 379.706,288.019 379.690,287.907 381.323 M301.068 391.719 C 300.284 392.664,298.097 394.470,296.210 395.732 C 293.626 397.459,293.876 397.045,297.222 394.055 C 301.997 389.788,303.355 388.964,301.068 391.719 M283.254 418.575 C 285.742 428.470,287.732 437.214,287.677 438.006 C 287.578 439.413,277.868 402.657,277.808 400.648 C 277.716 397.563,279.199 402.445,283.254 418.575 M56.194 409.541 C 55.318 411.933,54.566 413.339,54.523 412.666 C 54.414 410.966,56.827 404.234,57.355 404.763 C 57.592 405.000,57.070 407.150,56.194 409.541 M69.765 409.722 C 67.955 413.981,66.259 415.710,67.741 411.784 C 69.133 408.099,69.932 406.667,70.597 406.667 C 70.854 406.667,70.479 408.042,69.765 409.722 M50.663 421.944 C 50.274 423.625,49.756 431.500,49.511 439.444 L 49.065 453.889 49.919 441.111 C 50.388 434.083,51.143 426.208,51.595 423.611 C 52.504 418.395,51.783 417.106,50.663 421.944 M138.810 430.556 C 138.810 431.167,138.096 430.417,137.222 428.889 C 136.349 427.361,135.634 425.611,135.634 425.000 C 135.634 424.389,136.349 425.139,137.222 426.667 C 138.096 428.194,138.810 429.944,138.810 430.556 M304.418 452.588 C 306.985 464.094,308.874 473.719,308.616 473.976 C 308.183 474.409,298.876 434.034,298.885 431.759 C 298.896 428.765,300.197 433.662,304.418 452.588 M141.495 437.222 C 143.207 442.247,142.981 444.397,141.232 439.722 C 139.473 435.019,138.739 432.222,139.265 432.222 C 139.554 432.222,140.558 434.472,141.495 437.222 M290.990 452.222 C 290.947 453.139,290.217 451.389,289.367 448.333 C 288.516 445.278,287.856 442.028,287.899 441.111 C 287.941 440.194,288.672 441.944,289.522 445.000 C 290.373 448.056,291.033 451.306,290.990 452.222 M63.765 461.667 C 63.767 469.611,63.944 472.715,64.158 468.565 C 64.373 464.414,64.371 457.914,64.155 454.120 C 63.938 450.326,63.763 453.722,63.765 461.667 M133.199 453.308 C 133.917 455.433,134.027 456.683,133.442 456.086 C 132.858 455.489,132.024 453.500,131.589 451.667 C 130.569 447.367,131.516 448.333,133.199 453.308 M148.225 457.678 C 149.194 460.985,149.639 463.343,149.215 462.918 C 148.790 462.494,147.577 459.347,146.518 455.926 C 145.460 452.504,145.015 450.146,145.529 450.686 C 146.044 451.225,147.257 454.372,148.225 457.678 M215.470 453.248 C 209.831 458.886,211.055 464.281,218.462 466.443 C 227.425 469.059,228.582 468.286,229.203 459.275 C 229.336 457.348,229.819 456.003,230.278 456.285 C 232.499 457.652,230.746 454.318,228.183 452.303 C 223.983 448.999,219.376 449.342,215.470 453.248 M227.288 452.744 C 229.238 454.221,229.098 454.251,225.833 453.056 C 223.043 452.035,221.401 452.035,218.611 453.056 C 215.346 454.251,215.207 454.221,217.157 452.744 C 218.343 451.846,220.622 451.111,222.222 451.111 C 223.822 451.111,226.101 451.846,227.288 452.744 M299.487 489.952 C 305.991 520.915,314.510 567.718,314.350 571.598 C 314.298 572.858,312.080 561.639,309.422 546.667 C 306.763 531.694,301.787 506.194,298.363 490.000 C 294.938 473.806,291.906 459.056,291.623 457.222 L 291.109 453.889 292.211 457.222 C 292.817 459.056,296.092 473.784,299.487 489.952 M48.260 482.778 C 48.259 498.056,48.415 504.460,48.607 497.009 C 48.799 489.559,48.800 477.059,48.608 469.231 C 48.417 461.404,48.260 467.500,48.260 482.778 M230.166 461.298 C 230.075 462.929,229.712 465.179,229.361 466.298 C 228.756 468.222,228.790 468.225,229.987 466.361 C 230.684 465.276,231.046 463.026,230.793 461.361 L 230.333 458.333 230.166 461.298 M136.510 465.556 C 136.510 466.606,136.157 466.401,135.556 465.000 C 135.030 463.778,134.601 462.028,134.601 461.111 C 134.601 460.061,134.954 460.266,135.556 461.667 C 136.081 462.889,136.510 464.639,136.510 465.556 M218.333 468.294 C 220.167 469.177,223.167 469.865,225.000 469.822 C 228.248 469.746,228.233 469.724,224.444 468.954 C 222.306 468.519,219.306 467.831,217.778 467.426 C 215.537 466.831,215.644 466.999,218.333 468.294 M154.351 479.630 C 155.624 484.620,156.621 489.370,156.566 490.185 C 156.467 491.637,151.192 472.649,151.139 470.648 C 151.069 468.070,152.225 471.301,154.351 479.630 M311.984 488.333 C 311.970 489.556,311.316 488.056,310.530 485.000 C 309.745 481.944,309.114 478.444,309.128 477.222 C 309.141 476.000,309.795 477.500,310.581 480.556 C 311.366 483.611,311.997 487.111,311.984 488.333 M224.033 497.639 C 222.780 498.132,224.390 498.432,228.090 498.395 C 231.464 498.361,233.649 497.966,232.946 497.517 C 231.348 496.497,226.780 496.560,224.033 497.639 M314.625 497.778 C 314.579 498.694,315.218 502.444,316.046 506.111 C 316.873 509.778,317.553 511.528,317.557 510.000 C 317.565 506.883,314.756 495.172,314.625 497.778 M223.333 499.830 C 218.610 500.711,217.186 506.764,220.778 510.694 C 221.878 511.898,222.286 512.109,221.686 511.163 C 220.941 509.990,221.364 510.101,223.019 511.511 C 224.749 512.984,226.709 513.457,229.851 513.157 C 232.275 512.926,234.020 513.121,233.730 513.591 C 233.440 514.060,231.107 514.528,228.546 514.631 L 223.889 514.818 228.182 515.261 C 232.494 515.707,237.803 512.529,237.761 509.529 C 237.751 508.871,237.286 509.057,236.726 509.942 C 236.039 511.028,235.774 509.829,235.910 506.255 C 236.107 501.077,236.141 501.029,237.450 504.091 C 238.186 505.813,238.804 506.472,238.822 505.556 C 238.867 503.291,237.164 500.771,235.367 500.440 C 229.324 499.327,226.732 499.196,223.333 499.830 M160.222 503.889 C 160.222 505.111,160.622 507.361,161.111 508.889 C 161.816 511.088,162.001 511.204,162.001 509.444 C 162.001 508.222,161.600 505.972,161.111 504.444 C 160.407 502.245,160.222 502.129,160.222 503.889 M220.766 507.500 C 220.486 508.569,220.258 507.694,220.258 505.556 C 220.258 503.417,220.486 502.542,220.766 503.611 C 221.045 504.681,221.045 506.431,220.766 507.500 M162.274 513.426 C 162.366 516.216,167.549 539.508,167.665 537.655 C 167.727 536.670,166.724 530.670,165.437 524.321 C 163.245 513.514,162.153 509.750,162.274 513.426 M233.333 540.785 C 226.426 543.310,224.537 551.063,229.714 555.640 C 232.300 557.925,232.450 557.963,230.707 555.893 L 228.652 553.452 232.937 555.651 C 239.822 559.183,242.418 558.252,244.035 551.667 L 245.399 546.111 244.949 551.667 C 244.613 555.806,244.746 556.514,245.472 554.444 C 248.688 545.269,241.915 537.647,233.333 540.785 M242.883 543.611 C 244.998 546.109,244.998 546.109,242.690 544.167 C 239.884 541.804,236.044 541.691,231.908 543.849 C 230.207 544.736,229.133 544.948,229.522 544.320 C 231.766 540.687,240.037 540.249,242.883 543.611 M235.000 558.837 C 237.133 559.803,243.084 560.433,242.130 559.592 C 241.875 559.367,239.667 558.879,237.222 558.507 C 234.125 558.035,233.451 558.135,235.000 558.837 M77.100 565.000 C 77.644 567.434,77.541 567.884,76.717 566.667 C 76.097 565.750,75.582 564.042,75.573 562.870 C 75.550 560.028,76.186 560.915,77.100 565.000 M92.209 568.583 C 91.013 570.448,90.978 570.444,91.583 568.520 C 91.934 567.401,92.297 565.151,92.389 563.520 L 92.555 560.556 93.015 563.583 C 93.268 565.248,92.906 567.498,92.209 568.583 M141.020 571.832 C 146.250 572.379,148.369 572.121,150.793 570.644 L 153.889 568.757 151.266 571.045 C 147.512 574.320,134.134 573.608,130.697 569.950 C 129.725 568.916,129.993 568.899,131.893 569.876 C 133.240 570.568,137.347 571.449,141.020 571.832 M327.818 571.204 C 327.910 574.814,334.231 614.780,334.333 612.397 C 334.464 609.339,328.904 570.772,328.234 570.093 C 327.983 569.838,327.796 570.338,327.818 571.204 M51.111 579.680 C 52.028 580.019,55.153 581.182,58.055 582.263 C 60.958 583.345,63.082 583.825,62.776 583.330 C 62.148 582.314,52.465 578.842,50.635 578.977 C 49.980 579.025,50.194 579.342,51.111 579.680 M68.217 596.507 C 68.977 600.197,69.233 602.990,68.785 602.714 C 68.338 602.437,67.641 600.088,67.238 597.494 C 66.834 594.900,66.229 591.778,65.892 590.556 C 65.555 589.333,65.629 588.663,66.057 589.065 C 66.484 589.468,67.456 592.816,68.217 596.507 M155.434 594.585 C 154.939 597.718,154.241 600.574,153.883 600.932 C 153.254 601.561,154.186 593.105,155.058 590.278 C 156.065 587.010,156.267 589.319,155.434 594.585 M166.382 597.676 C 166.051 602.509,165.191 607.384,164.473 608.510 C 163.247 610.428,163.212 610.416,163.905 608.333 C 164.311 607.111,164.920 602.236,165.258 597.500 C 165.596 592.764,166.123 588.889,166.429 588.889 C 166.734 588.889,166.713 592.843,166.382 597.676 M88.397 591.007 C 88.055 591.562,88.711 591.770,89.855 591.471 C 91.160 591.130,93.438 592.246,95.968 594.467 C 98.185 596.415,100.000 597.474,100.000 596.822 C 100.000 593.925,89.764 588.796,88.397 591.007 M118.325 595.543 C 118.699 596.147,118.315 596.377,117.472 596.053 C 116.629 595.730,114.603 595.973,112.969 596.594 C 109.385 597.956,108.947 597.018,112.500 595.590 C 115.861 594.239,117.512 594.226,118.325 595.543 M137.778 597.934 L 140.556 600.264 137.426 598.391 C 134.804 596.822,133.992 596.756,132.426 597.981 C 130.747 599.295,130.712 599.245,132.080 597.500 C 133.998 595.055,134.379 595.084,137.778 597.934 M334.443 616.759 C 334.439 621.035,338.264 652.431,338.648 651.278 C 339.129 649.835,335.593 616.409,334.879 615.648 C 334.640 615.394,334.444 615.894,334.443 616.759 M91.667 617.771 C 89.833 618.157,95.537 618.322,104.341 618.136 C 113.146 617.951,120.555 617.593,120.806 617.342 C 121.537 616.611,95.341 616.997,91.667 617.771 M126.111 617.778 L 121.667 618.574 125.556 618.600 C 127.694 618.614,130.944 618.244,132.778 617.778 C 137.299 616.627,132.536 616.627,126.111 617.778 M138.889 619.328 C 140.417 620.266,143.167 620.993,145.000 620.944 C 148.276 620.857,148.266 620.841,144.444 620.022 C 142.306 619.564,139.556 618.837,138.333 618.407 C 136.877 617.894,137.069 618.212,138.889 619.328 M98.178 647.778 C 98.178 653.583,98.366 655.958,98.594 653.056 C 98.823 650.153,98.823 645.403,98.594 642.500 C 98.366 639.597,98.178 641.972,98.178 647.778 M322.450 642.222 C 322.405 644.361,323.021 651.861,323.819 658.889 C 324.617 665.917,325.287 669.417,325.308 666.667 C 325.329 663.917,324.713 656.417,323.939 650.000 C 323.166 643.583,322.495 640.083,322.450 642.222 M339.182 657.778 C 339.164 660.528,339.514 666.028,339.960 670.000 C 340.730 676.849,340.775 676.935,340.821 671.667 C 340.848 668.611,340.498 663.111,340.043 659.444 C 339.295 653.419,339.212 653.258,339.182 657.778 M96.136 682.247 C 95.687 695.141,95.564 705.934,95.862 706.232 C 96.160 706.531,96.772 696.226,97.222 683.333 C 97.672 670.441,97.796 659.647,97.496 659.348 C 97.197 659.049,96.585 669.354,96.136 682.247 M325.824 677.222 C 325.786 680.278,326.431 692.278,327.256 703.889 L 328.755 725.000 328.127 707.222 C 327.426 687.375,325.936 667.967,325.824 677.222 M341.949 693.889 C 342.261 703.056,342.700 710.764,342.925 711.019 C 343.612 711.797,343.109 693.258,342.219 685.000 C 341.697 680.152,341.595 683.501,341.949 693.889 M110.435 696.667 C 110.435 704.917,110.610 708.292,110.824 704.167 C 111.038 700.042,111.038 693.292,110.824 689.167 C 110.610 685.042,110.435 688.417,110.435 696.667 M93.875 729.431 C 93.426 741.408,93.304 751.452,93.603 751.751 C 93.902 752.050,94.512 742.494,94.959 730.515 C 95.406 718.536,95.529 708.492,95.232 708.195 C 94.935 707.898,94.324 717.454,93.875 729.431 M109.289 722.222 C 109.289 728.028,109.477 730.403,109.706 727.500 C 109.934 724.597,109.934 719.847,109.706 716.944 C 109.477 714.042,109.289 716.417,109.289 722.222 M108.142 740.556 C 108.147 744.833,108.348 746.447,108.589 744.142 C 108.829 741.837,108.825 738.337,108.580 736.364 C 108.334 734.392,108.137 736.278,108.142 740.556 M106.178 761.733 C 105.741 768.833,105.620 774.880,105.911 775.170 C 106.201 775.460,106.801 769.894,107.244 762.800 C 107.688 755.706,107.808 749.660,107.512 749.363 C 107.215 749.067,106.615 754.634,106.178 761.733 M92.596 761.111 C 92.596 765.694,92.792 767.569,93.032 765.278 C 93.271 762.986,93.271 759.236,93.032 756.944 C 92.792 754.653,92.596 756.528,92.596 761.111 M326.111 774.444 C 324.278 775.659,323.278 776.644,323.889 776.635 C 325.003 776.617,331.044 772.287,330.000 772.254 C 329.694 772.245,327.944 773.230,326.111 774.444 M305.556 777.778 L 298.333 778.505 304.444 778.587 C 307.806 778.632,313.306 778.289,316.667 777.824 C 324.855 776.692,316.670 776.658,305.556 777.778 M268.889 780.431 C 260.639 781.089,255.639 781.764,257.778 781.931 C 259.917 782.098,269.917 781.550,280.000 780.713 C 290.083 779.876,295.083 779.201,291.111 779.212 C 287.139 779.224,277.139 779.772,268.889 780.431 M317.778 783.493 C 315.028 784.716,308.778 786.904,303.889 788.355 C 299.000 789.806,296.000 791.015,297.222 791.042 C 298.444 791.069,304.444 789.291,310.556 787.092 C 316.667 784.892,324.167 782.717,327.222 782.258 L 332.778 781.424 327.778 781.346 C 325.019 781.303,320.537 782.265,317.778 783.493 M221.111 783.889 C 211.639 784.615,207.139 785.240,211.111 785.278 C 215.083 785.317,226.333 784.718,236.111 783.948 C 245.889 783.178,250.389 782.553,246.111 782.559 C 241.833 782.565,230.583 783.163,221.111 783.889 M188.056 786.372 C 190.958 786.601,195.708 786.601,198.611 786.372 C 201.514 786.143,199.139 785.956,193.333 785.956 C 187.528 785.956,185.153 786.143,188.056 786.372 M283.333 792.858 L 276.111 794.334 282.387 793.768 C 285.838 793.457,290.088 792.774,291.831 792.252 C 296.681 790.798,291.660 791.157,283.333 792.858 M264.444 795.190 C 262.917 795.417,256.417 796.061,250.000 796.622 L 238.333 797.642 251.667 797.031 C 265.823 796.383,280.429 794.724,271.667 794.759 C 269.222 794.769,265.972 794.963,264.444 795.190 " stroke="none" fill="#000000" fill-rule="evenodd"></path></g></svg>