<svg id="svg" version="1.1" width="802" height="130" xmlns="http://www.w3.org/2000/svg" xmlns:xlink="http://www.w3.org/1999/xlink" ><g id="svgg"><path id="path0" d="M190.409 4.861 C 187.722 6.527,187.064 9.668,188.529 13.836 C 189.528 16.678,190.057 30.724,189.198 31.584 C 188.646 32.135,186.057 26.451,184.695 21.698 C 181.973 12.203,180.032 9.726,175.312 9.726 C 169.898 9.726,167.769 12.117,168.282 17.621 C 169.340 28.980,169.324 29.253,166.774 42.217 C 163.752 57.580,164.846 60.848,173.013 60.848 C 178.308 60.848,180.042 58.296,180.047 50.499 C 180.050 45.670,179.905 45.767,182.800 48.662 C 187.666 53.528,194.117 54.326,198.075 50.551 L 199.392 49.294 201.812 50.582 C 209.741 54.803,223.671 48.675,226.785 39.595 L 227.621 37.157 228.199 41.147 C 229.709 51.570,236.247 55.169,242.815 49.194 C 246.208 46.108,246.426 39.366,243.216 36.817 C 242.635 36.356,242.268 35.870,242.401 35.738 C 242.755 35.386,250.117 34.414,252.425 34.414 C 258.939 34.414,262.972 26.725,259.113 21.665 C 257.070 18.988,255.002 18.626,248.812 19.867 C 243.804 20.870,240.024 21.433,231.671 22.418 L 227.681 22.889 225.935 21.229 C 220.755 16.303,213.661 16.922,206.014 22.967 C 204.642 24.051,203.402 24.938,203.257 24.938 C 202.692 24.938,203.031 20.977,203.741 19.279 C 206.939 11.624,196.941 0.810,190.409 4.861 M27.026 8.239 C 21.814 9.659,20.364 9.868,17.445 9.623 C 13.819 9.319,10.474 11.273,10.474 13.693 C 10.474 14.147,9.997 15.565,9.415 16.843 C 8.531 18.784,8.407 19.725,8.669 22.537 C 9.057 26.710,8.247 30.112,6.665 30.959 C 3.309 32.755,3.382 40.402,6.775 42.625 C 7.563 43.141,7.980 43.887,7.980 44.778 C 7.980 46.327,10.043 54.127,10.848 55.622 C 11.992 57.746,13.898 58.993,16.360 59.229 C 22.521 59.821,25.296 54.308,23.202 45.636 C 22.061 40.912,21.667 41.324,29.551 38.996 C 39.269 36.126,38.902 36.067,38.907 40.524 C 38.919 51.959,47.977 59.582,53.422 52.739 C 54.131 51.848,54.745 51.740,58.659 51.817 C 61.791 51.878,64.827 51.532,69.004 50.640 C 72.256 49.945,76.454 49.377,78.332 49.377 C 80.211 49.377,82.289 49.130,82.951 48.829 C 83.993 48.354,84.453 48.510,86.420 50.012 C 90.852 53.395,95.895 52.592,102.101 47.514 L 104.203 45.795 106.601 47.817 C 110.140 50.802,112.521 51.537,118.794 51.582 C 123.868 51.619,124.187 51.685,125.527 52.961 C 127.437 54.781,129.443 55.457,131.876 55.098 C 133.215 54.901,134.552 55.066,135.770 55.578 C 143.964 59.029,155.940 50.904,155.611 42.117 C 155.332 34.672,155.901 32.067,157.954 31.389 C 162.906 29.755,162.748 21.432,157.737 19.930 C 153.385 18.626,140.833 19.493,136.908 21.369 C 134.988 22.287,132.482 23.325,131.340 23.676 L 129.264 24.315 128.705 22.093 C 127.082 15.647,117.402 15.108,111.758 21.150 C 110.226 22.790,110.182 22.786,107.465 20.711 C 102.374 16.825,92.667 16.181,84.668 19.198 C 82.128 20.157,79.201 20.942,78.164 20.944 C 77.126 20.946,75.481 21.280,74.507 21.687 C 72.797 22.402,72.676 22.378,70.908 20.993 C 67.344 18.203,59.352 17.656,51.870 19.691 C 47.680 20.831,46.460 20.746,47.678 19.399 C 49.076 17.854,49.029 12.093,47.602 10.136 C 44.585 5.998,37.615 5.356,27.026 8.239 M283.385 8.239 C 278.173 9.659,276.723 9.868,273.804 9.623 C 270.179 9.319,266.833 11.273,266.833 13.693 C 266.833 14.147,266.356 15.565,265.774 16.843 C 264.890 18.784,264.766 19.725,265.028 22.537 C 265.416 26.710,264.606 30.112,263.024 30.959 C 259.668 32.755,259.741 40.402,263.135 42.625 C 263.922 43.141,264.339 43.887,264.339 44.778 C 264.339 46.327,266.402 54.127,267.207 55.622 C 268.351 57.746,270.257 58.993,272.719 59.229 C 278.880 59.821,281.655 54.308,279.561 45.636 C 278.444 41.011,278.264 41.273,283.666 39.673 C 286.340 38.881,288.779 38.147,289.086 38.041 C 289.429 37.923,289.735 38.808,289.883 40.343 C 290.935 51.296,301.002 55.036,312.675 48.809 C 316.505 46.766,316.455 46.764,317.705 48.937 C 319.537 52.120,328.124 52.200,331.710 49.067 C 333.269 47.705,336.413 49.656,337.123 52.425 C 338.287 56.964,342.032 58.781,347.241 57.335 C 349.359 56.747,352.120 54.617,352.120 53.572 C 352.120 52.614,352.481 52.676,355.321 54.117 C 359.913 56.446,365.019 55.171,368.030 50.943 L 369.130 49.397 371.133 50.723 C 379.493 56.255,395.997 42.603,396.007 30.148 C 396.015 20.178,382.347 13.998,370.279 18.514 C 367.885 19.409,367.168 19.486,365.589 19.012 C 358.421 16.865,354.740 19.552,355.233 26.572 C 355.497 30.324,355.004 29.890,354.408 25.846 C 353.474 19.508,344.501 16.952,340.956 22.013 C 340.222 23.061,339.807 23.170,337.025 23.044 C 334.682 22.938,333.549 23.131,332.429 23.828 C 330.959 24.743,330.925 24.740,329.187 23.560 C 327.740 22.577,326.932 22.396,324.591 22.530 C 321.987 22.680,321.614 22.564,320.103 21.132 C 316.337 17.567,311.192 16.942,305.920 19.409 L 302.521 20.999 303.754 19.686 C 305.435 17.897,305.556 12.324,303.961 10.136 C 300.944 5.998,293.974 5.356,283.385 8.239 M197.217 12.679 C 198.620 15.644,198.854 17.061,197.880 16.687 C 197.402 16.503,197.243 18.043,197.197 23.311 C 197.000 45.805,193.464 51.748,185.388 43.161 C 184.346 42.053,183.139 40.474,182.705 39.651 C 181.403 37.183,179.778 33.825,178.543 31.047 C 177.303 28.260,176.575 27.718,176.533 29.551 C 176.499 31.047,175.840 35.828,174.641 43.277 C 174.099 46.644,173.763 50.475,173.893 51.793 C 174.165 54.539,173.194 56.002,171.842 54.881 C 171.443 54.549,170.846 54.445,170.517 54.649 C 169.895 55.033,170.237 48.330,170.894 47.267 C 171.059 46.999,171.276 45.751,171.375 44.494 C 171.474 43.237,171.773 41.521,172.040 40.680 C 172.307 39.840,172.639 38.142,172.778 36.908 C 172.916 35.673,173.280 32.885,173.586 30.711 C 174.183 26.467,173.889 20.176,172.976 17.644 C 172.242 15.610,172.721 14.464,174.306 14.464 C 175.763 14.464,177.038 16.223,178.013 19.578 C 181.878 32.889,185.815 40.092,190.843 43.048 C 193.653 44.700,195.871 16.947,193.337 11.849 C 192.826 10.823,192.542 9.637,192.704 9.214 C 193.273 7.732,195.792 9.667,197.217 12.679 M41.196 11.778 C 42.617 12.452,42.893 12.848,42.893 14.218 C 42.893 16.231,41.747 16.803,40.004 15.661 C 36.491 13.359,18.787 18.251,17.782 21.802 C 16.910 24.880,16.309 32.419,16.936 32.419 C 17.232 32.419,19.210 31.942,21.331 31.358 C 23.452 30.775,25.973 30.127,26.933 29.920 C 29.874 29.283,38.994 27.146,43.766 25.975 C 45.655 25.511,53.099 24.200,58.603 23.361 C 69.666 21.676,70.774 28.101,60.891 36.621 C 58.399 38.770,56.359 40.705,56.359 40.922 C 56.359 43.006,58.338 43.351,64.838 42.397 C 66.621 42.136,69.539 41.780,71.322 41.607 C 75.421 41.210,75.349 41.267,75.283 38.491 C 75.157 33.174,75.935 26.355,76.701 26.061 C 78.413 25.404,78.876 27.359,78.516 33.738 C 78.168 39.922,78.601 41.355,80.653 40.806 C 80.870 40.748,81.564 40.876,82.196 41.090 C 83.539 41.547,82.844 42.893,81.265 42.893 C 80.766 42.893,80.213 43.128,80.035 43.415 C 79.841 43.729,78.881 43.815,77.637 43.630 C 75.691 43.342,74.029 43.532,66.584 44.895 C 57.225 46.608,53.670 46.296,52.467 43.657 C 51.422 41.362,52.929 38.798,57.210 35.590 C 67.749 27.693,64.821 24.480,50.654 28.395 C 47.095 29.379,46.923 29.769,46.806 37.157 C 46.728 42.057,47.524 45.548,48.916 46.408 C 49.892 47.011,48.515 49.485,47.505 48.944 C 44.713 47.450,43.897 44.644,43.893 36.534 C 43.890 30.162,43.831 30.018,41.632 31.020 C 40.646 31.469,40.101 31.475,39.411 31.044 C 38.908 30.730,37.858 30.585,37.079 30.721 C 34.280 31.212,29.092 32.661,27.182 33.487 C 26.273 33.880,19.891 35.636,17.025 36.282 C 15.670 36.587,15.761 40.748,17.229 45.626 C 17.629 46.956,17.852 48.149,17.724 48.277 C 17.596 48.405,17.717 48.932,17.993 49.448 C 18.359 50.131,18.269 50.863,17.661 52.144 C 16.253 55.110,15.267 53.612,13.012 45.079 C 12.713 43.950,12.469 41.888,12.469 40.497 C 12.469 38.009,12.443 37.966,10.848 37.812 C 8.326 37.569,8.221 35.240,10.695 34.423 C 11.728 34.082,12.496 33.489,12.533 33.004 C 12.648 31.518,12.928 29.739,13.552 26.532 C 14.021 24.121,14.028 23.030,13.583 21.850 C 13.085 20.529,13.141 20.136,13.983 19.066 C 14.522 18.381,14.963 17.058,14.963 16.127 C 14.963 14.076,15.976 13.534,17.701 14.664 C 19.015 15.525,20.918 15.172,29.676 12.442 C 34.791 10.847,38.754 10.618,41.196 11.778 M297.556 11.778 C 298.976 12.452,299.252 12.848,299.252 14.218 C 299.252 16.231,298.106 16.803,296.363 15.661 C 292.850 13.359,275.146 18.251,274.141 21.802 C 273.269 24.880,272.668 32.419,273.295 32.419 C 273.591 32.419,275.569 31.942,277.690 31.358 C 279.811 30.775,282.332 30.127,283.292 29.920 C 285.297 29.486,293.671 27.540,296.259 26.906 C 300.286 25.919,301.746 25.854,301.746 26.661 C 301.746 27.673,302.332 27.635,303.522 26.546 C 309.674 20.910,317.223 21.933,317.198 28.399 C 317.173 35.250,314.552 40.397,309.569 43.381 C 298.290 50.137,290.334 42.558,297.849 32.217 L 299.334 30.175 297.986 30.011 C 297.244 29.921,296.047 30.012,295.326 30.214 C 294.605 30.415,293.692 30.643,293.296 30.721 C 290.470 31.277,284.955 32.829,283.541 33.468 C 282.645 33.873,276.407 35.601,273.384 36.282 C 272.029 36.587,272.120 40.748,273.588 45.626 C 273.988 46.956,274.211 48.149,274.083 48.277 C 273.955 48.405,274.076 48.932,274.352 49.448 C 274.718 50.131,274.628 50.863,274.020 52.144 C 272.612 55.110,271.626 53.612,269.371 45.079 C 269.072 43.950,268.828 41.888,268.828 40.497 C 268.828 38.009,268.802 37.966,267.207 37.812 C 264.685 37.569,264.580 35.240,267.054 34.423 C 268.087 34.082,268.855 33.489,268.892 33.004 C 269.007 31.518,269.287 29.739,269.911 26.532 C 270.380 24.121,270.387 23.030,269.942 21.850 C 269.444 20.529,269.500 20.136,270.342 19.066 C 270.881 18.381,271.322 17.058,271.322 16.127 C 271.322 14.076,272.335 13.534,274.060 14.664 C 275.374 15.525,277.277 15.172,286.035 12.442 C 291.150 10.847,295.113 10.618,297.556 11.778 M38.114 21.250 C 39.280 21.698,39.071 22.444,37.781 22.444 C 37.163 22.445,34.190 23.113,31.172 23.929 C 25.475 25.471,23.441 25.750,23.441 24.991 C 23.441 24.452,24.000 24.210,29.426 22.400 C 33.551 21.024,36.506 20.633,38.114 21.250 M294.473 21.250 C 295.639 21.698,295.430 22.444,294.140 22.444 C 293.522 22.445,290.549 23.113,287.531 23.929 C 281.834 25.471,279.800 25.750,279.800 24.991 C 279.800 24.452,280.359 24.210,285.786 22.400 C 289.910 21.024,292.865 20.633,294.473 21.250 M123.192 23.169 C 123.192 24.611,122.545 25.436,121.414 25.436 C 113.744 25.436,107.790 39.746,114.247 42.658 C 118.226 44.453,126.361 43.091,125.152 40.833 C 124.897 40.356,124.688 38.717,124.688 37.190 C 124.688 34.378,123.519 33.387,121.920 34.846 C 119.293 37.245,114.314 36.648,116.092 34.148 C 116.544 33.513,122.398 31.261,126.434 30.170 C 128.080 29.725,129.988 29.177,130.673 28.953 C 131.359 28.728,132.930 28.249,134.165 27.887 C 135.399 27.525,137.229 26.698,138.231 26.049 C 142.118 23.532,158.775 23.252,155.342 25.762 C 154.836 26.132,153.263 26.434,151.845 26.434 C 147.254 26.434,144.529 26.995,144.267 27.995 C 144.113 28.584,143.393 29.005,142.214 29.194 C 138.122 29.848,138.155 29.828,138.155 31.680 C 138.155 33.717,138.535 33.779,145.599 32.893 C 148.214 32.565,149.951 32.545,150.246 32.839 C 150.943 33.537,149.770 35.411,148.635 35.411 C 148.110 35.411,146.387 35.748,144.807 36.160 C 143.228 36.571,141.098 36.908,140.074 36.908 C 137.765 36.908,137.556 37.244,137.556 40.957 C 137.556 46.432,139.188 48.185,142.592 46.368 C 145.173 44.990,145.916 44.318,147.001 42.375 C 148.075 40.452,149.334 39.917,149.818 41.177 C 150.748 43.602,145.114 49.538,140.799 50.678 C 138.740 51.222,135.815 49.438,134.756 46.992 C 133.771 44.717,133.762 44.392,134.423 35.268 L 134.741 30.884 133.410 31.218 C 130.316 31.995,127.420 33.370,127.266 34.137 C 127.011 35.403,128.213 41.895,128.703 41.895 C 128.942 41.895,129.413 42.816,129.750 43.942 C 130.088 45.068,130.658 46.102,131.017 46.240 C 131.962 46.602,131.824 48.850,130.833 49.230 C 130.244 49.457,129.394 48.889,127.965 47.316 L 125.935 45.080 121.257 45.561 C 113.890 46.317,107.822 43.746,107.693 39.815 C 107.672 39.176,107.579 38.260,107.487 37.778 C 106.894 34.679,112.672 25.869,117.272 22.859 C 119.603 21.334,123.192 21.522,123.192 23.169 M99.200 22.526 C 108.880 24.761,109.003 33.523,99.466 41.432 C 93.011 46.785,91.390 47.219,88.529 44.355 L 86.534 42.358 86.534 34.770 C 86.534 27.465,86.497 27.188,85.536 27.332 C 80.439 28.097,79.409 25.738,84.293 24.486 C 85.663 24.135,86.783 23.644,86.783 23.395 C 86.783 23.146,87.288 22.939,87.905 22.935 C 88.522 22.931,89.364 22.710,89.776 22.444 C 90.808 21.777,96.156 21.824,99.200 22.526 M382.991 22.526 C 392.671 24.761,392.794 33.523,383.257 41.432 C 376.802 46.785,375.181 47.219,372.319 44.355 L 370.324 42.358 370.324 34.770 C 370.324 27.465,370.287 27.188,369.327 27.332 C 364.230 28.097,363.200 25.738,368.084 24.486 C 369.453 24.135,370.574 23.644,370.574 23.395 C 370.574 23.146,371.079 22.939,371.696 22.935 C 372.313 22.931,373.155 22.710,373.566 22.444 C 374.598 21.777,379.947 21.824,382.991 22.526 M219.268 22.936 C 220.818 22.955,222.943 26.120,222.934 28.399 C 222.908 35.250,220.287 40.397,215.305 43.381 C 207.512 48.049,200.499 45.919,200.499 38.883 C 200.499 36.734,205.098 28.939,206.375 28.923 C 206.572 28.921,207.519 28.183,208.479 27.284 C 211.616 24.346,215.687 22.338,217.706 22.734 C 218.254 22.841,218.957 22.932,219.268 22.936 M362.859 23.665 C 364.697 24.433,365.059 25.536,363.865 26.730 C 363.093 27.501,363.145 29.151,364.170 36.519 C 365.033 42.719,364.096 46.597,361.226 48.709 L 359.761 49.787 357.561 48.805 C 355.042 47.681,352.531 45.422,350.991 42.893 C 350.406 41.933,349.804 41.035,349.652 40.898 C 349.501 40.761,348.948 39.807,348.425 38.778 C 347.223 36.414,347.029 36.435,346.193 39.027 C 345.055 42.559,344.832 48.418,345.815 48.968 C 347.422 49.868,346.789 51.258,344.605 51.627 C 342.181 52.036,342.129 51.996,341.610 49.272 C 341.161 46.921,341.633 43.095,343.152 36.757 C 343.692 34.508,344.134 31.196,344.136 29.397 C 344.143 23.067,347.843 22.059,348.950 28.085 C 350.455 36.273,356.131 45.885,359.462 45.885 C 361.384 45.885,362.099 40.048,361.082 32.668 C 359.652 22.298,359.647 22.323,362.859 23.665 M254.071 27.178 C 253.621 27.866,253.109 28.443,252.935 28.461 C 252.761 28.478,251.608 28.556,250.374 28.633 C 249.140 28.711,245.445 29.145,242.164 29.599 C 238.882 30.053,236.120 30.424,236.024 30.424 C 235.929 30.424,235.968 30.612,236.110 30.842 C 236.252 31.072,236.495 33.247,236.651 35.677 C 236.962 40.521,237.011 40.648,238.574 40.648 C 239.840 40.648,240.277 42.676,239.274 43.897 C 235.682 48.269,233.061 45.255,232.546 36.160 C 232.241 30.780,232.016 30.391,229.536 30.967 C 226.257 31.728,224.543 31.539,224.174 30.374 C 223.561 28.443,226.952 27.315,235.162 26.718 C 240.846 26.304,246.090 25.539,250.125 24.533 L 253.616 23.663 254.253 24.795 C 254.788 25.745,254.759 26.129,254.071 27.178 M90.969 25.826 C 90.446 26.166,90.124 28.480,89.440 36.830 C 89.153 40.325,89.200 40.549,90.448 41.707 L 91.757 42.920 93.742 41.907 C 99.127 39.160,104.633 32.200,103.650 29.382 C 102.705 26.669,93.603 24.117,90.969 25.826 M374.760 25.826 C 374.236 26.166,373.915 28.480,373.230 36.830 C 372.944 40.325,372.990 40.549,374.239 41.707 L 375.547 42.920 377.533 41.907 C 382.917 39.160,388.423 32.200,387.441 29.382 C 386.495 26.669,377.394 24.117,374.760 25.826 M213.195 28.245 C 201.801 35.069,202.012 47.333,213.417 41.126 C 218.133 38.559,222.565 28.429,218.972 28.429 C 218.434 28.429,217.583 27.987,217.080 27.448 C 216.174 26.476,216.137 26.483,213.195 28.245 M307.459 28.245 C 296.065 35.069,296.277 47.333,307.682 41.126 C 312.398 38.559,316.829 28.429,313.236 28.429 C 312.698 28.429,311.847 27.987,311.344 27.448 C 310.439 26.476,310.402 26.483,307.459 28.245 M325.686 27.919 C 325.686 28.461,325.125 30.396,324.439 32.218 C 323.111 35.745,322.804 39.811,323.791 40.798 C 326.069 43.077,331.883 37.043,333.619 30.598 C 335.376 24.071,338.137 27.358,338.150 35.994 C 338.156 39.517,338.470 40.354,340.009 40.939 C 341.455 41.489,341.315 42.224,339.509 43.572 C 337.091 45.378,335.599 43.952,334.437 38.730 L 334.121 37.310 331.113 40.593 C 324.846 47.432,321.268 47.571,320.032 41.024 C 319.485 38.125,322.212 28.399,323.877 27.314 C 324.894 26.651,325.686 26.916,325.686 27.919 M98.254 31.584 C 98.254 31.673,97.693 32.273,97.007 32.918 L 95.761 34.089 95.761 32.755 C 95.761 31.665,95.988 31.421,97.007 31.421 C 97.693 31.421,98.254 31.495,98.254 31.584 M382.045 31.584 C 382.045 31.673,381.484 32.273,380.798 32.918 L 379.551 34.089 379.551 32.755 C 379.551 31.665,379.779 31.421,380.798 31.421 C 381.484 31.421,382.045 31.495,382.045 31.584 " stroke="none" fill="#000000" fill-rule="evenodd"></path></g></svg>