<?xml version="1.0" encoding="UTF-8" standalone="no"?>
<!-- Created with Inkscape (http://www.inkscape.org/) -->

<svg
   xmlns:dc="http://purl.org/dc/elements/1.1/"
   xmlns:cc="http://creativecommons.org/ns#"
   xmlns:rdf="http://www.w3.org/1999/02/22-rdf-syntax-ns#"
   xmlns:svg="http://www.w3.org/2000/svg"
   xmlns="http://www.w3.org/2000/svg"
   xmlns:sodipodi="http://sodipodi.sourceforge.net/DTD/sodipodi-0.dtd"
   xmlns:inkscape="http://www.inkscape.org/namespaces/inkscape"
   width="1536"
   height="1152"
   viewBox="0 0 406.40001 304.80001"
   version="1.1"
   id="svg8"
   sodipodi:docname="vintage kitchen.svg"
   inkscape:version="0.92.1 r15371">
  <defs
     id="defs2" />
  <sodipodi:namedview
     id="base"
     pagecolor="#ffffff"
     bordercolor="#666666"
     borderopacity="1.0"
     inkscape:pageopacity="0.0"
     inkscape:pageshadow="2"
     inkscape:zoom="0.24748737"
     inkscape:cx="462.81677"
     inkscape:cy="531.21368"
     inkscape:document-units="px"
     inkscape:current-layer="layer1"
     showgrid="false"
     units="px"
     inkscape:window-width="1366"
     inkscape:window-height="705"
     inkscape:window-x="-8"
     inkscape:window-y="-8"
     inkscape:window-maximized="1" />
  <metadata
     id="metadata5">
    <rdf:RDF>
      <cc:Work
         rdf:about="">
        <dc:format>image/svg+xml</dc:format>
        <dc:type
           rdf:resource="http://purl.org/dc/dcmitype/StillImage" />
        <dc:title></dc:title>
      </cc:Work>
    </rdf:RDF>
  </metadata>
  <g
     inkscape:label="Layer 1"
     inkscape:groupmode="layer"
     id="layer1"
     transform="translate(0,7.8000086)">
    <g
       transform="matrix(0.1073772,0,0,0.1073772,411.27232,17.235979)"
       id="g972">
      <path
         inkscape:connector-curvature="0"
         d="m -3015.6992,639.81074 c 4.0581,-0.1051 6.3602,3.11661 3.6269,6.13672 -1.9807,2.18867 -2.2441,6.49949 -2.2441,36.70898 0,31.2475 -0.4443,36.00686 -3.1113,33.33984 -0.4889,-0.48888 -0.8887,-16.3547 -0.8887,-35.25586 0,-21.47226 -0.5009,-34.67457 -1.334,-35.18945 -2.5137,-1.55352 -1.3327,-4.61559 2.1133,-5.48047 0.6418,-0.16108 1.2582,-0.24475 1.8379,-0.25976 z m 42.2539,-0.25977 c 3.6601,0 5.471,3.17801 3.3008,5.79297 -0.9526,1.14773 -1.5838,13.72368 -1.8164,36.20508 -0.2701,26.11469 -0.76,34.58127 -2.0235,35.00195 -1.3046,0.43434 -1.666,-6.90456 -1.666,-33.7832 0,-29.93877 -0.2795,-34.64987 -2.1836,-36.75391 -2.7591,-3.04881 -0.4408,-6.46289 4.3887,-6.46289 z m -21.5391,0 c 4.5062,0 7.2368,3.79925 4.2832,5.95899 -2.0521,1.50054 -2.2832,5.1172 -2.2832,35.77539 0,30.94896 -0.571,37.24932 -3.1465,34.67382 -0.4689,-0.46896 -0.8535,-16.32245 -0.8535,-35.23046 0,-30.99147 -0.2228,-34.50305 -2.2695,-35.64844 -3.0317,-1.69662 -0.073,-5.5293 4.2695,-5.5293 z m -42,0 c 3.4288,0 6.1768,3.69051 4.211,5.65625 -1.0858,1.08582 -1.5505,11.44732 -1.5645,34.94336 -0.019,31.30213 -0.7849,39.48935 -3.3144,35.39649 -0.5514,-0.89222 -0.8914,-16.47884 -0.7559,-34.63672 0.2178,-29.17056 -0.011,-33.27221 -1.9629,-35.22461 -2.5835,-2.58343 -0.6236,-6.13477 3.3867,-6.13477 z m 951.9063,-456.00409 -524.2852,0.33593 -524.2871,0.33399 v 32.66797 32.66601 l 58.2227,0.66602 c 32.0229,0.36667 58.5094,0.96731 58.8574,1.33398 0.624,0.65738 2.9199,217.68545 2.9199,276 0,36.52206 -0.2151,37.1692 -19.7715,59.31836 -24.567,27.82409 -27.6405,37.70819 -27.9863,90.01563 -0.366,55.36143 1.9112,57.34901 63.6894,55.62109 46.5959,-1.30328 46.9428,-1.71721 46.3418,-55.62109 -0.5932,-53.21021 -3.5029,-63.28183 -26.7246,-92.50391 -4.3024,-5.41412 -9.2616,-12.76685 -11.0195,-16.33789 l -3.1953,-6.49219 0.1309,-74 c 0.1135,-64.45232 1.8565,-131.36756 5.6464,-216.66601 l 0.8887,-20 109.9258,-0.3418 c 75.8123,-0.23528 110.363,0.0956 111.334,1.06641 1.4903,1.49024 2.2023,30.23856 4.6054,185.9414 0.747,48.4 0.8755,90.09936 0.2852,92.66602 -3.8173,16.59626 -21.9344,36.41524 -49.2383,53.86328 -35.4459,22.65104 -5.5455,102.4702 42.4766,113.39258 46.3436,10.54063 84.0189,-23.93904 87.9219,-80.46485 1.5663,-22.68468 1.024,-23.74488 -19.629,-38.38476 -15.8577,-11.24063 -33.2602,-28.36127 -38.3593,-37.73828 l -3.9883,-7.33399 0.2539,-56.66601 c 0.1398,-31.16667 0.8718,-74.06733 1.627,-95.33399 0.7552,-21.26667 2.0387,-58.76731 2.8515,-83.33398 0.8128,-24.56666 1.7126,-45.41889 2,-46.33985 0.415,-1.32933 22.9883,-1.60484 109.5625,-1.33398 l 109.0371,0.3418 0.8516,28.66601 c 7.0906,238.75924 6.3183,272.69157 -6.4102,281.27344 -49.2037,33.17436 -32.7774,155.1875 20.8926,155.1875 53.7832,0 66.5171,-125.63076 16.1094,-158.9336 l -7.4434,-4.91796 -0.789,-9.97071 c -2.0193,-25.48264 5.0905,-288.13931 7.875,-290.92383 0.5849,-0.58484 51.1298,-0.91023 112.3222,-0.72265 l 111.2598,0.3418 1.6562,114.66601 c 0.9114,63.06666 1.512,131.78274 1.334,152.70117 l -0.3242,38.03321 -4.3105,8.63281 c -2.3705,4.74824 -8.8592,13.73347 -14.42,19.9668 -17.7866,19.93752 -24.8112,35.16591 -27.0605,58.66601 -1.1208,11.71049 -0.6923,93.23001 0.5098,97 0.6058,1.8998 17.4784,2.34726 20.3281,0.53906 1.6019,-1.0164 1.6928,-57.40722 0.1133,-70.20507 -0.3992,-3.23467 0.038,-4.07686 2.289,-4.39844 3.5647,-0.50932 6.7621,3.06581 4.8282,5.39844 -1.6132,1.94586 -2.6564,66.2291 -1.1153,68.72265 1.277,2.0661 13.7003,2.11813 14.9707,0.0625 1.5947,-2.58019 0.5319,-66.49162 -1.1504,-69.18554 -3.0704,-4.91648 4.6704,-9.0359 8.4414,-4.49219 1.3039,1.57117 1.3772,2.70227 0.2911,4.4414 -2.0258,3.2438 -2.8209,67.54444 -0.8594,69.50586 0.7912,0.79123 4.3733,1.25309 7.959,1.02539 l 6.5195,-0.41406 -0.834,-69.62109 c -2.8557,-5.37984 2.3658,-8.96535 7.543,-5.17969 2.1421,1.56632 2.3062,2.36927 1.0254,5 -2.6739,5.49224 -3.5278,68.67354 -0.9414,69.66602 2.7025,1.03704 10.3876,1.03266 13.0976,-0.008 2.6916,-1.03288 3.2125,-64.12505 0.5645,-68.36523 -2.1988,-3.52084 -0.4819,-6.82617 3.5449,-6.82617 3.8081,0 5.7265,3.11651 3.541,5.75 -1.5672,1.8883 -2.4328,66.39628 -0.9238,68.83789 1.1004,1.78037 17.6082,1.87 18.7012,0.10156 1.3023,-2.10726 0.7431,-93.68319 -0.6387,-104.58203 -2.4933,-19.66532 -8.2279,-31.79244 -25.2715,-53.43945 -16.7867,-21.32071 -17.8192,-36.89216 -12.6016,-190 1.1121,-32.63333 2.354,-77.33399 2.7618,-99.33399 0.4384,-23.65075 1.291,-40.68056 2.0839,-41.66601 1.0425,-1.29572 17.1584,-1.66797 72.4121,-1.66797 65.0873,0 71.1092,-0.18507 71.504,-2.20703 0.2374,-1.21435 0.259,-16.21604 0.051,-33.33594 z"
         style="fill:#000000;stroke-width:1.33333337"
         id="path948" />
      <path
         inkscape:connector-curvature="0"
         d="m -2966.3594,2279.7346 c 41.1333,-0.011 86.3702,-0.01 133.9434,0.01 282.2668,0.085 645.818,0.5888 723.0879,1.1934 v 3.9238 c -121.3582,2.6036 -921.3189,2.2243 -1053.8848,-0.459 v -4.3496 c 28.9528,-0.1894 101.0934,-0.289 196.8535,-0.3144 z m 240.418,-197.5098 c -24.8893,0.018 -31.8297,6.1552 -33.8027,29.8926 -0.719,8.6498 -2.5898,18.0986 -5.2559,26.5351 -3.2524,10.2915 -3.8039,13.5089 -2.5664,15 7.928,9.5528 17.9996,-5.9746 22.1191,-34.1015 2.5573,-17.46 1.4421,-16.5392 20.9981,-17.334 17.6572,-0.7176 20.7988,-1.8634 20.7988,-7.584 0,-8.6638 -6.7472,-12.4212 -22.291,-12.4082 z m 165.2754,-0.4668 c -10.0698,0.023 -19.325,2.8425 -21.6465,8.4473 -3.8455,9.2837 0.6677,11.9652 20.1816,11.9922 18.543,0.026 18.9928,0.4002 20.9532,17.3574 1.7502,15.1392 4.902,25.044 10.0019,31.4355 9.3575,11.7274 15.1466,4.1835 9.5176,-12.4043 -1.9353,-5.7026 -4.1281,-15.7691 -4.8711,-22.3691 -2.3313,-20.7093 -2.392,-20.9173 -7.5957,-26.1211 -5.5869,-5.5868 -16.4712,-8.3607 -26.541,-8.3379 z m -0.9844,-110.873 h 161.334 161.332 l 7.5254,3.6953 c 16.434,8.0729 25.1089,22.5619 25.1289,41.9707 l 0.014,12.334 c -7.5082,-0.3986 -24.2776,1.8164 -26.9277,-3.6192 -7.2488,-15.0784 -20.1491,-5.9197 -19.4551,13.8125 0.5876,16.71 19.7148,25.5763 19.7148,9.1387 8.6808,-3.7531 14.8874,-2 26.668,-2 v 52 52 c -5.0043,-0.2959 -24.8377,1.234 -26.2402,-2.332 -3.4245,-9.7031 -18.1354,-10.6801 -19.293,-1.2813 -0.9929,8.0617 -0.4949,21.0469 0.9414,24.5664 3.2102,7.8658 14.0242,7.6576 17.3633,-0.334 l 1.9297,-4.6191 h 25.2988 v 11.7637 c 0,19.7724 -8.2072,34.0337 -24.5449,42.6543 l -6.7891,3.582 -161.334,0.2402 c -178.5747,0.2645 -166.1081,0.8651 -178.666,-8.6269 -18.0046,-13.6091 -18.1676,-14.7413 -17.7109,-122.375 l 0.3769,-89.2383 3.5313,-7.5293 c 4.4961,-9.59 12.6815,-17.7773 22.2715,-22.2734 z m -392.7246,-0.5235 v 0 c 20.3186,0 44.4244,0.031 72.7246,0.1055 l 157.334,0.4121 8.4277,4.5683 c 24.7529,13.4206 24.3842,11.5064 23.9395,124.5742 l -0.3672,93.5235 -3.8965,7.0332 c -5.3414,9.6407 -14.6271,17.9723 -23.8887,21.4375 l -7.6484,2.8613 -158.2832,-0.064 c -173.6757,-0.07 -163.5104,0.3935 -175.7129,-8.002 -12.3336,-8.4857 -18.3133,-20.7701 -18.4648,-37.9336 l -0.1055,-12 c 6.9759,0.3536 24.3883,-1.6275 26.9043,3.3106 7.3858,14.8142 19.0957,7.3554 19.0957,-12.1641 0,-19.0012 -12.4176,-26.9031 -18.6465,-11.8652 l -1.6777,4.0507 h -26.3438 v -52 -52 c 5.119,0.2007 26.2471,-1.0289 27.5782,2.334 5.8287,16.4358 19.3594,7.8683 18.8027,-11.9062 -0.5375,-19.0964 -9.508,-25.2177 -17.7051,-12.0821 l -2.6758,4.2872 c -8.444,-0.211 -16.888,-0.422 -25.332,-0.6329 l -0.4004,-7.7031 c -1.2063,-23.1748 13.9032,-44.4601 34.7461,-48.9473 3.7702,-0.8098 30.64,-1.1866 91.5957,-1.1992 z m -23.4512,-6.6992 c -70.7495,0.1322 -71.9575,1.4477 -82.2519,6.9102 -16.4332,8.72 -24.9959,23.2206 -26.166,44.3125 l -0.7403,13.332 h -9.332 l -0.6777,-10 c -1.4854,-21.909 -22.2706,-28.6776 -30.1504,-9.8184 -2.9689,7.1055 -2.5843,52.9861 0.4961,59.1524 8.6001,17.2154 28.3875,9.8227 29.664,-11.082 l 0.668,-10.918 h 9.332 l 0.3496,52.334 0.3496,52.332 h -10.6992 v -10.7988 c 0,-18.7226 -13.8421,-26.7624 -26.3515,-15.3047 l -4.9805,4.5605 -0.4414,25.6602 c -0.5137,29.95 -0.089,33.149 5.0781,38.3164 11.6129,11.6128 25.5458,3.835 26.6953,-14.9004 l 0.668,-10.8652 h 9.332 l 0.7403,13.332 c 1.3887,25.0326 13.5688,41.6743 35.7089,48.7871 7.1488,2.2967 16.0477,2.4106 166.8848,2.1523 l 159.334,-0.2714 8.9336,-4.2325 c 11.3667,-5.3848 20.1151,-14.1333 25.5,-25.5 l 4.2324,-8.9355 0.4043,-88.666 c 0.5297,-116.2771 -1.2069,-123.5128 -32.6914,-136.2207 l -7.7129,-3.1133 -155.334,-0.4023 c -41.9488,-0.1088 -73.2586,-0.1964 -96.8418,-0.1524 z m 527.1602,-0.3672 c -55.7228,-0.053 -101.9454,0.4274 -108.3184,1.6387 -16.1665,3.0728 -29.7144,13.2259 -37.582,28.1641 l -3.75,7.1191 v 97.334 97.334 l 3.2715,6.666 c 6.4145,13.071 20.0123,24.5809 33.3008,28.1875 4.7164,1.2798 42.116,1.5971 165.4277,1.4004 l 159.332,-0.2539 8.7305,-4.1368 c 20.6474,-9.7844 30.6035,-26.3404 30.6035,-50.8906 v -9.8008 c 3.3333,0.2761 6.6667,0.5521 10,0.8282 l 0.666,10.8984 c 1.1672,19.0813 15.5435,26.4136 27,13.7715 l 3.668,-4.0449 v -58.8926 l -4.5332,-4.5332 c -3.8695,-3.8695 -5.4518,-4.5332 -10.8008,-4.5332 -10.4154,0 -15.3265,6.0359 -15.3535,18.8672 -0.025,11.9566 -0.7957,13.4366 -6.416,12.3125 l -4.2617,-0.8516 0.3496,-52.1641 0.3476,-52.164 3.8555,-0.4395 c 5.0653,-0.5781 6.1,1.3647 6.125,11.5059 0.044,18.3128 14.8734,26.5425 26.6348,14.7812 l 4.0527,-4.0527 v -29.8769 -29.875 l -3.8906,-4.3555 c -10.7013,-11.9768 -25.6749,-4.1464 -26.7774,14.0039 l -0.666,10.9746 c -3.3333,0.2761 -6.6667,0.5521 -10,0.8281 v -9.8008 c 0,-24.9836 -11.7395,-43.1532 -33.707,-52.1699 -5.1717,-2.1227 -124.4373,-3.6908 -217.3086,-3.7793 z m -275.584,-247.2617 c -16.1041,0.4942 -31.9731,13.6048 -33.4531,32.084 -0.7088,8.8502 -2.4806,17.8179 -5.1934,26.2851 -2.2646,7.0684 -3.7464,13.8184 -3.293,15 5.2784,13.7554 18.6945,-6.2143 22.7422,-33.8515 2.5573,-17.46 1.4401,-16.5392 20.9961,-17.334 21.344,-0.8674 28.171,-7.7638 16.3653,-16.5332 -5.5258,-4.1046 -11.8625,-5.8438 -18.1641,-5.6504 z m 167.373,-0.3906 c -2.0426,0.031 -4.19,0.1646 -6.4453,0.4004 -28.2006,2.9476 -25.1625,19.5419 3.8067,20.791 17.8733,0.7705 19.1377,1.3115 19.1777,8.209 0.087,14.8801 7.1957,37.9509 13.1328,42.6211 9.864,7.759 12.6989,1.149 7.0586,-16.459 -2.4877,-7.7661 -4.4665,-17.6529 -5.2383,-26.1758 -1.8422,-20.3433 -11.7465,-29.6851 -31.4922,-29.3867 z m -326.7734,-108.7578 h 161.334 l 8.4277,4.5683 c 24.7529,13.4206 24.3842,11.5064 23.9395,124.5742 l -0.3672,93.5235 -3.1406,6 c -6.9825,13.3446 -19.3542,22.4781 -34.1582,25.2148 -9.2888,1.7168 -302.8782,1.7824 -313.0606,0.068 -22.1673,-3.7288 -36.6053,-20.9246 -37.9922,-45.2481 l -0.6855,-12.0351 c 6.8276,0.3764 26.4086,-1.6928 28.3398,3.2519 5.6858,14.9546 18.6973,5.9717 18.6973,-12.9082 0,-18.8141 -12.4774,-26.6222 -18.666,-11.6816 l -1.6973,4.0976 c -8.5455,-0.2546 -17.0911,-0.5071 -25.6367,-0.7597 l -0.3496,-51.666 -0.3496,-51.668 c 8.6771,0.036 17.3541,0.07 26.0312,0.104 l 2.6856,4.2813 c 8.1091,12.9356 18.2277,4.9549 17.6953,-13.9571 -0.5371,-19.0823 -9.4757,-25.198 -17.7051,-12.1152 l -2.6758,4.2519 c -8.7897,0.033 -17.5794,0.069 -26.3691,0.104 l 0.7383,-11.668 c 1.3152,-20.7917 9.6557,-34.8342 26.0449,-42.6074 12.8956,-6.1162 113.7238,-3.7251 168.9199,-3.7251 z m 326.666,-2.668 h 158.668 c 0,0 106.203,0.05 158.666,0 3.2751,0 8.8789,4.207 8.8789,4.207 18.0626,8.5576 25.5406,20.3739 26.2422,41.461 l 0.4551,13.666 c -5.0319,-0.2967 -25.0776,1.2368 -26.4824,-2.334 -5.9647,-16.9005 -19.0938,-9.8312 -19.0938,10.2812 0,20.0661 13.1525,27.2212 19.0938,10.3868 8.4308,-4.5553 14.6759,-2.334 26.2402,-2.334 v 52 52 c -4.2931,-0.1602 -26.492,0.8547 -26.668,-2 0,-6.0432 -9.8656,-9.3464 -15.7031,-5.2578 -4.9093,3.4387 -4.4837,28.534 0.5508,32.4941 5.6726,4.4621 12.5262,2.3429 15.2051,-4.7031 8.0499,-6.1737 14.2902,-3.1992 26.6132,-3.1992 v 12.332 c 0,19.7823 -9.3299,34.8834 -26.4316,42.7871 l -6.2344,2.8809 -159.332,0.3007 c -176.6466,0.3336 -165.4645,0.8478 -178.5586,-8.2265 -18.5319,-12.8425 -18.1094,-10.068 -18.1094,-118.7422 v -93.332 l 3.7442,-8 c 4.7168,-10.0808 14.5922,-19.5282 24.6718,-23.6016 z m -417.6347,-4.5449 c -70.2601,0.1214 -72.7051,1.322 -82.1602,6.1133 -17.2603,8.7466 -26.4723,24.0715 -27.3066,45.4316 l -0.5332,13.668 h -10.3653 v -9.4004 c 0,-17.9395 -12.9396,-27.5872 -24.6484,-18.377 -10.6573,8.383 -11.077,64.8813 -0.5371,72.2637 12.6419,8.8548 24.0337,1.0931 25.1816,-17.1543 l 0.6719,-10.666 h 9.332 l 0.3496,52.334 0.3496,52.332 h -10.6992 v -10.7988 c 0,-17.325 -12.9052,-26.2138 -24.6484,-16.9766 -9.8361,7.7372 -11.2844,60.9695 -1.9141,70.3398 11.4832,11.4836 25.4197,3.5963 26.5625,-15.0312 l 0.668,-10.8652 h 9.332 l 0.7403,13.332 c 1.3744,24.7756 14.4186,42.5266 36.3086,49.4102 4.5537,1.4319 35.9446,1.7183 165.6191,1.5117 l 160,-0.2539 8.666,-4.168 c 12.6819,-6.0985 19.1052,-12.3164 24.9629,-24.166 l 5.0371,-10.1895 0.4043,-88.7383 c 0.5296,-116.3584 -1.2033,-123.5836 -32.6914,-136.2929 l -7.7129,-3.1133 -155.334,-0.3984 c -41.2613,-0.1063 -72.2147,-0.187 -95.6347,-0.1465 z m 413.6347,-0.7871 -7.6699,3.5937 c -10.0502,4.7099 -20.9143,15.1317 -25.7695,24.7188 l -3.8926,7.6875 v 97.332 97.334 c 3.4035,23.1792 24.1729,31.8341 39.8066,35.2949 3.0396,0.609 76.3261,1.017 162.8594,0.9063 l 157.334,-0.2012 6.959,-2.8555 c 21.9675,-9.0167 33.707,-27.1883 33.707,-52.1719 v -9.8007 c 3.3333,0.276 6.6667,0.552 10,0.8281 l 0.666,11.1133 c 1.0985,18.3121 14.7041,25.7843 26.1348,14.3535 l 4.5332,-4.5332 v -29.5938 c 0,-33.7424 -0.6096,-35.9644 -10.5918,-38.6523 -12.4131,-3.3425 -20.0762,3.9419 -20.0762,19.084 0,9.3739 -1.6529,12.0794 -6.9258,11.332 l -3.0742,-0.4375 -0.3476,-52.4141 -0.3496,-52.414 c 3.3437,0.276 6.6875,0.552 10.0312,0.8281 l 0.666,11.1152 c 1.0985,18.3121 14.7041,25.7824 26.1348,14.3516 l 4.5332,-4.5332 v -29.3633 -29.3652 l -3.4453,-4.0918 c -10.4174,-12.3804 -27.2227,-4.6844 -27.2227,12.4668 0,11.2925 -0.6823,12.7539 -5.9629,12.7539 h -4.3457 l -0.6797,-13 c -1.2073,-23.121 -10.8021,-38.5629 -29.6777,-47.7656 l -8,-3.9004 h -162.666 z m -75.0625,-66.6289 c -2.7602,-0.08 -5.6035,1.6941 -5.6035,4.6289 0,0.6285 0.9731,2.1157 2.1621,3.3047 4.1265,4.1265 10.7688,-0.7458 7.6875,-5.6387 -0.965,-1.5323 -2.59,-2.247 -4.2461,-2.2949 z m 68.666,-13.7383 c -7.0027,-0.1977 -14.1696,3.5087 -17.5156,11.8711 -3.4982,8.743 -0.4193,17.6315 7.8555,22.6777 12.1174,7.3893 27.3727,-1.5379 27.3848,-16.0254 0.01,-11.5618 -8.7212,-18.2692 -17.7247,-18.5234 z m 116.2422,-0.1133 c -16.955,-0.6774 -27.4548,23.9605 -10.1054,34.5391 5.1313,3.1288 12.9388,3.359 18.3847,0.5429 12.5267,-6.4779 12.1049,-27.0602 -0.6797,-33.1269 -2.6232,-1.2448 -5.1774,-1.8583 -7.5996,-1.9551 z m -59.5879,-0.3711 v 0 c -14.2623,0.567 -24.1608,20.2837 -10.9804,32.5781 5.3763,5.0151 5.9352,5.2179 12.8496,4.6446 18.869,-1.5648 24.3048,-24.5779 8.1347,-34.4375 -2.9205,-1.7808 -5.8348,-2.6463 -8.6113,-2.7793 -0.4685,-0.023 -0.9325,-0.024 -1.3926,-0.01 z m -125.5898,-1.8164 c -1.3486,0 -2.135,1.6284 -2.4141,5 -0.3589,4.3362 -0.038,5 2.4141,5 2.4519,0 2.7729,-0.6638 2.4141,-5 -0.2791,-3.3716 -1.0654,-5 -2.4141,-5 z m 0.4355,-1.2793 c 8.6808,0.1684 17.2789,4.9894 20.8145,14.3672 2.0988,5.567 1.9116,5.8206 -4.25,5.6953 -4.8161,-0.098 -5.668,0.2844 -5.668,2.5508 0,2.2036 0.9269,2.6873 5.334,2.7793 10.5911,0.2226 2.0394,14.6076 -11,18.5039 -2.7663,0.8265 -3,0.4734 -3,-4.5274 0,-4.5343 -0.4364,-5.4218 -2.666,-5.4218 -2.2222,0 -2.668,0.8876 -2.668,5.332 0,6.2186 -0.225,6.2848 -8.0195,2.334 -10.108,-5.1235 -15.269,-17.187 -6.8711,-16.0606 5.8149,0.78 8.1493,-1.1486 5.4004,-4.4609 -1.1873,-1.4308 -3.0787,-1.8518 -6.1133,-1.3594 -4.8978,0.7948 -5.2041,0.066 -2.5937,-6.1816 3.8583,-9.2344 12.62,-13.7192 21.3007,-13.5508 z m -0.4648,-10.0527 c -36.7796,0 -44.528,50.9797 -9.6406,63.4297 6.6619,2.3775 11.9356,2.331 19.2754,-0.17 34.9153,-11.8968 27.0926,-63.2597 -9.6348,-63.2597 z m -482.6387,-30.6133 1011.6563,0.3164 v 798.1211 l -519.6563,-0.2402 c -387.9773,-0.1794 -502.3495,-0.3636 -534.2285,-1.9415 v -760.6621 c 0.1184,-15.0924 7.9944,-31.2199 42.2285,-35.5937 z m 567.5586,-43.4746 c 42.6594,-0.011 84.6898,-0.012 125.0449,0 193.7047,0.056 348.7999,0.378 349.4512,1.0293 0.5184,0.5184 0.5866,1.8684 0.1524,3 -0.9998,2.6054 -1102.6681,3.2132 -1104.2774,0.6093 -0.4928,-0.7973 -0.1985,-2.1473 0.6543,-3 0.9508,-0.9507 330.3592,-1.5629 628.9746,-1.6386 z m -299.5586,-55.3574 v 4.4902 c 0,10.2006 -22.0988,18.2763 -60.666,22.1699 -60.1184,6.0692 -131.334,-6.2228 -131.334,-22.668 0,-4.599 0.5085,-4.7237 4.9668,-1.2168 24.9794,19.6488 147.7209,19.9915 181.3672,0.5059 z m 526.8047,-15.6387 c 51.5395,0.3194 65.2714,14.014 12.3945,18.3945 -17.4978,1.4496 -18.2438,1.4476 -36.8457,-0.09 -47.8099,-3.9498 -38.2066,-16.7466 13.6465,-18.1836 3.7635,-0.1043 7.3687,-0.1424 10.8047,-0.1211 z m -4.2324,-13.1778 c -43.6011,0.097 -87.1119,6.325 -97.7305,18.0665 -9.4363,10.4343 18.696,22.9209 63.1582,28.0332 67.7494,7.7897 156.1671,-14.1054 127.6699,-31.6153 -16.0836,-9.8824 -54.6261,-14.5699 -93.0976,-14.4844 z m -110.4199,-24.4062 -2.0118,2.873 c -1.4483,2.0678 -1.645,3.5629 -0.6972,5.334 1.2637,2.3615 5.7452,2.461 111.0039,2.461 114.4507,0 112.8867,0.077 112.8867,-5.5528 0,-4.9857 -2.8293,-5.1152 -113.1699,-5.1152 z m 87.0508,-15.0703 c -44.3012,0.052 -83.883,0.6431 -85.3321,1.8457 -2.296,1.9055 -2.3895,4.1731 -0.2617,6.3008 2.934,2.934 207.686,1.5829 209.5566,-1.3828 1.1171,-1.7711 0.9573,-2.8085 -0.6894,-4.4551 -1.5537,-1.5538 -66.3153,-2.3759 -123.2734,-2.3086 z m 2.8964,-14.3653 c -7.541,0 -14.9742,-4e-4 -22.1191,0.01 -34.2958,0.058 -61.9279,0.3156 -62.7383,0.8164 -1.4302,0.8839 -1.6755,6.3987 -0.3437,7.7305 0.4936,0.4935 45.0436,0.7428 99,0.5547 l 98.1015,-0.3418 0.4473,-3.1543 c 0.2454,-1.7346 -0.1149,-3.7145 -0.8008,-4.4004 -0.7342,-0.7342 -58.7597,-1.1795 -111.5469,-1.2149 z m -125.7636,-5.7695 h 260.0039 c 1.7861,6.643 41.3902,19.4964 37.6972,27.1465 -4.3797,3.9488 -4.2099,-2.5044 -6.0722,-3.252 -8.3824,11.2597 -4.9733,20.7773 -5.6895,31.4864 -1.3987,20.8248 -20.5937,50.4902 -32.6699,50.4902 -55.1361,32.9489 -123.6205,23.652 -183.6055,20.0156 l -25.332,-1.666 c -18.5706,-21.1832 -52.1584,-19.4686 -71.334,-30.3496 10.0988,-9.0982 3.4284,-51.059 8.883,-55.3262 2.2088,-1.6151 1.9601,-3.2607 -1.1465,-7.5859 1.9666,-21.0983 19.4869,-19.5435 19.2655,-30.959 z m -67.8145,0 c 0.1488,9.3351 29.914,12.7189 25.0215,18.1953 -2.0586,5.0824 -5.3684,9.5417 -8.6484,12.9473 10.467,8.2207 24.0873,23.4686 24.4394,35.2656 2.669,4.3927 0.3517,16.0246 0.8657,17.502 1.8599,9.0506 -23.2213,19.4179 -28.1582,18.5488 -53.6887,27.3326 -119.6716,17.4249 -166.3125,9.5645 -12.584,-2.1113 -25.9284,-7.3935 -30.1992,-11.9532 -5.7915,-6.1832 -6.3394,-16.3432 -0.6094,-11.3008 26.4061,23.2374 163.424,23.1124 188.3497,-0.1718 31.6273,-29.5442 -133.9137,-44.7363 -184.4981,-16.9317 -25.0709,5.67 40.3458,-33.4042 27.9707,-36.58 -7.2992,-1.838 -14.0742,-6.9734 -14.0742,-10.6661 0,-3.1498 0.2601,-3.1503 6.4531,0.01 24.4714,12.4844 115.3948,12.2779 140.2129,-0.3184 22.2388,-11.2872 -13.1132,-21.6986 -34.843,-22.905 z m -141.3633,0 h 28.4121 c -13.2369,0.7842 -25.966,2.4635 -36.8457,5.2403 -12.6439,3.227 -9.2413,0.2404 4.375,-3.8399 1.6877,-0.5057 3.0392,-0.9694 4.0586,-1.4004 z m -405.0195,-62.1582 c 7.5602,16.0509 37.679,26.5001 89.8613,31.166 60.5372,5.413 152.2576,-3.256 177.7344,-16.7988 9.1977,-4.8893 15.151,-10.01 18.0547,-14.2852 4.0915,22.4358 -9.2575,45.3725 -19.6445,55.5762 l -0.629,3.1875 c -0.3467,1.753 -1.6298,9.7868 -2.8515,17.8535 -4.1047,27.1006 -19.254,58 -28.4356,58 -1.1727,0 -6.6533,2.3392 -12.1796,5.1973 -45.3836,23.4722 -120.2625,21.0922 -167.0625,-5.3105 -14.8765,-8.3926 -25.1073,-30.8195 -29.1036,-63.793 -0.88,-7.2613 -1.2619,-11.319 -2.5312,-13.541 l 0.7871,-1.4571 c -5.2625,-4.8299 -13.399,-15.9006 -18.7578,-27.9648 -4.2311,-9.5254 -6.6598,-19.6065 -5.2422,-27.8301 z m 184.3965,-46.918 c 2.7746,0 5.5299,0.095 8.2617,0.3106 40.1869,3.1727 64.586,6.5977 85.3613,36.2851 -61.6011,22.8259 -186.6635,35.9538 -263.9297,2.1075 -3.453,-1.6321 -6.4209,-2.5743 -8.8222,-2.8711 13.2602,-18.0377 35.0732,-26.3685 59.8242,-30.1602 26.9562,-4.1295 57.1455,-2.7834 82.5215,-2.9082 12.376,-1.0398 24.7596,-2.7689 36.7832,-2.7637 z m -36.8887,-46.6777 c -9.2956,-0.051 -12.3838,0.5114 -15.4863,1.5488 -16.9316,5.6619 -20.9833,19.5327 -9.4375,32.3125 2.536,2.807 4.6113,5.9592 4.6113,7.0039 0,1.0208 1.5132,3.0427 3.3848,4.5528 -22.6782,-0.08 -45.3968,-0.1096 -66.0938,2.9765 -44.0817,4.7787 -83.2141,27.884 -62.9004,74.6524 3.5473,7.9859 7.2577,17.8464 11.0176,25.3926 -4.7437,0.087 -8.1907,0.2023 -11.6133,0.3398 -31.3485,1.2587 -36.0337,7.8778 -85.9082,121.3359 -7.9378,18.0574 -10.5388,22.7388 -13.1933,23.75 -5.055,1.9257 -5.3184,3.0737 -5.3184,23.0918 0,20.7796 0.034,20.8988 6.7422,23.6914 l 4.7812,1.9922 v 798.209 c -0.7152,0.5664 -1.6161,0.7693 -2.7578,0.9785 -6.8331,1.2521 -7.2948,4.1165 -7.7324,47.8379 -0.3717,37.1366 -0.1997,41.0276 1.957,44.334 l 2.3633,3.625 h 551.2676 551.2695 l 2.0332,-3.9336 c 3.2473,-6.2796 2.9895,-81.5837 -0.3007,-87.8164 l -2.3321,-4.416 h -2.8066 v -779.418 c 0,0 -1.1847,-19.5237 11.4531,-20.6386 14.8005,-1.8095 18.5269,-47.7774 3.8731,-47.7774 -3.452,0 -4.3558,-1.0645 -9.3418,-11 -18.7471,-37.3579 -63.5861,-109.6525 -75.3653,-121.5137 -5.224,-5.2604 -19.5129,-8.8959 -32.6562,-9.83 -202.1835,-7.8309 -414.8644,-1.8633 -620.4922,-1.8633 12.2721,-18.2086 16.4115,-46.6397 9.293,-63.2696 -33.3518,-47.6317 -85.7206,-42.4466 -134.2305,-40.8574 1.8955,-1.2214 3.4057,-2.7467 4.2734,-4.539 1.1,-2.2721 3.9098,-5.7237 6.2442,-7.6719 15.8598,-13.2358 0.5805,-32.7576 -12.2149,-33.0195 -1.5994,-0.033 -3.0548,-0.053 -4.3828,-0.061 z"
         style="fill:#ff8080;fill-opacity:1;stroke-width:1.33333337"
         id="path870" />
      <path
         sodipodi:nodetypes="ccccccccccccccccccccccccccccsccsccsscccccccccsccccscscccccs"
         inkscape:connector-curvature="0"
         d="m -1852.8105,2322.885 0.2207,45.998 h 1169.85542 l 0.31446,-45.9687 z m 1112.0811,-277.1218 c -4.79839,-209.9315 -14.47878,-744.4688 7.84719,-949.9492 28.89234,90.8791 20.16814,744.2559 -7.84719,949.9492 z m -763.4854,-1001.8978 c 8.1076,8.8474 7.7654,23.0236 0.4101,26.4063 -5.0508,2.1103 -246.7661,2.0865 -251.918,0 -12.7867,-5.1785 -12.6588,-18.7837 -1.3476,-26.4063 z m -348.3653,-121.32419 -0.9648,105.61919 c -1.3694,149.7346 -0.6927,1262.196 0.7695,1265.0273 1.0656,2.0635 4.3324,2.3525 30.8262,2.7266 106.6866,1.5067 1136.72805,0.1569 1138.71482,-1.4922 1.98352,-1.6465 2.1344,-57.0234 1.8711,-686.666 l -0.28711,-684.87505 z m -1.6894,-63.07813 0.2636,36.08789 h 1171.75395 v -38.66601 z m 341.2108,-176.06836 c 12.0426,6.23842 10.2232,24.24252 0.029,26.28125 h -244.6875 c -13.3407,0 -13.2865,-23.63197 -2.0898,-26.28125 z m 777.4962,-282.97656 c 2.54619,0.13967 5.36512,4.68808 8.43164,13.79883 12.5785,37.37108 11.78802,299.46698 -1.01758,337.33398 -14.7945,43.74861 -24.5912,-37.07753 -23.125,-190.78125 1.0025,-105.102 6.61741,-160.85039 15.71094,-160.35156 z m -72.29102,-265.12324 c 14.31256,0.91494 36.29124,20.27079 42.40821,26.92188 31.4479,34.86532 50.30861,101.74779 38.35351,136 -2.2678,6.49763 -3.01439,7.37683 -6.55859,7.71289 -8.9133,0.84514 -12.05235,-4.99034 -22.75195,-42.30664 -9.49883,-37.99518 -27.28178,-72.66473 -49.11719,-102.57617 -12.42112,-16.96618 -10.85773,-25.48196 -2.33399,-25.75196 z M -1272.0332,34.636719 c 77.8134,0.140503 158.5363,6.930077 229.7168,21.642578 91.49779,19.038512 113.30693,36.96345 33.332,27.394531 -155.958,-18.660233 -304.4937,-22.41695 -406,-10.267578 -66.6337,6.565846 -188.8213,29.80649 -240.666,34.63086 65.5304,-44.419945 163.2733,-56.548846 242,-66.457032 37.9633,-4.696237 90.1119,-6.977837 141.6172,-6.943359 z m -20.1055,-31.2402346 c -285.8106,0.8034217 -520.165,76.2849206 -558.4238,200.1542956 -7.9693,104.46899 -3.0879,212.36424 -3.0879,317.7793 0,219.54677 0.4139,308.12427 1.4453,308.98047 l 1170.55471,0.57422 V 524.2168 217.55078 C -725.50331,107.01474 -864.03581,54.974724 -941.65039,38.332031 -1060.581,14.201542 -1180.2997,3.082102 -1292.1387,3.3964844 Z"
         style="fill:#94e9ee;fill-opacity:1;stroke-width:1.33333337"
         id="path26" />
    </g>
  </g>
</svg>
